solid AssimpScene
 facet normal -0.1485471427440643 -0.9053131341934204 -0.3979219496250153
  outer loop
  vertex -0.112226277589798 -0.5386311411857605 0.07351252436637878
  vertex -0.1122598946094513 -0.5750287771224976 0.1563334167003632
  vertex -0.1700759828090668 -0.5580889582633972 0.1393767595291138
  endloop
 endfacet

 facet normal 0.0001518414064776152 0.3826846778392792 -0.9238790273666382
  outer loop
  vertex -0.1122122704982758 0.4594911336898804 0.04062333703041077
  vertex 0.1124762669205666 0.5388023257255554 0.07351216673851013
  vertex 0.112461656332016 0.4595531225204468 0.04068595170974731
  endloop
 endfacet

 facet normal 0.6990681290626526 0.03323923423886299 -0.7142821550369263
  outer loop
  vertex 0.4674662053585052 0.1125018745660782 0.2457667291164398
  vertex 0.3450194299221039 -0.4219377636909485 0.1010577976703644
  vertex 0.2984435558319092 -0.375335693359375 0.0576426088809967
  endloop
 endfacet

 facet normal 0.1884719431400299 0.02204340137541294 -0.9818311929702759
  outer loop
  vertex 0.2984435558319092 -0.375335693359375 0.0576426088809967
  vertex 0.1124536618590355 0.2576584815979004 0.03615161776542664
  vertex 0.112461656332016 0.4595531225204468 0.04068595170974731
  endloop
 endfacet

 facet normal 0.0001511964073870331 0.3826863169670105 -0.9238783717155457
  outer loop
  vertex -0.1122263967990875 0.5387405157089233 0.07344979047775269
  vertex 0.1124762669205666 0.5388023257255554 0.07351216673851013
  vertex -0.1122122704982758 0.4594911336898804 0.04062333703041077
  endloop
 endfacet

 facet normal -0.2811427712440491 -0.9596659541130066 -0.0001175110955955461
  outer loop
  vertex -0.1122598946094513 -0.5750287771224976 0.1563334167003632
  vertex -0.1700908243656158 -0.5580893754959106 0.1782949268817902
  vertex -0.1700759828090668 -0.5580889582633972 0.1393767595291138
  endloop
 endfacet

 facet normal -0.008014613762497902 -0.9154618978500366 -0.4023250937461853
  outer loop
  vertex -0.112226277589798 -0.5386311411857605 0.07351252436637878
  vertex 0.1124762445688248 -0.5421403646469116 0.0770212709903717
  vertex -0.1122598946094513 -0.5750287771224976 0.1563334167003632
  endloop
 endfacet

 facet normal -0.5951099991798401 0.2468613386154175 0.764789879322052
  outer loop
  vertex -0.1341453492641449 0.1068370193243027 0.7169498205184937
  vertex -0.2084758877754211 0.1704821735620499 0.6385669708251953
  vertex -0.2324276268482208 0.1126568019390106 0.638594388961792
  endloop
 endfacet

 facet normal -0.6600562930107117 0.3459254503250122 0.6668292880058289
  outer loop
  vertex -0.1941856741905212 0.3835067749023438 0.5422030687332153
  vertex -0.2084758877754211 0.1704821735620499 0.6385669708251953
  vertex -0.1702443659305573 0.3809844255447388 0.5672097206115723
  endloop
 endfacet

 facet normal -0.7533604502677917 0.3123220205307007 0.5787081122398376
  outer loop
  vertex -0.2084758877754211 0.1704821735620499 0.6385669708251953
  vertex -0.1941856741905212 0.3835067749023438 0.5422030687332153
  vertex -0.2324276268482208 0.1126568019390106 0.638594388961792
  endloop
 endfacet

 facet normal 0.2517552971839905 0.104279451072216 0.9621564745903015
  outer loop
  vertex 0.08153887093067169 0.07792761921882629 0.733912467956543
  vertex 0.1705518215894699 0.01954422891139984 0.7169492244720459
  vertex 0.1343959122896194 0.1068370118737221 0.7169487476348877
  endloop
 endfacet

 facet normal 0.4714302122592926 -0.1956838220357895 0.8599194884300232
  outer loop
  vertex 0.134395569562912 -0.1066652238368988 0.7169487476348877
  vertex 0.3810415267944336 -0.1702834069728851 0.5672540664672852
  vertex 0.4049934446811676 -0.1124598681926727 0.5672813653945923
  endloop
 endfacet

 facet normal 0.6828462481498718 -0.5757613182067871 0.449688732624054
  outer loop
  vertex 0.3810415267944336 -0.1702834069728851 0.5672540664672852
  vertex 0.4126493632793427 -0.2533621788024902 0.4128876030445099
  vertex 0.4244516491889954 -0.1702569127082825 0.5013703107833862
  endloop
 endfacet

 facet normal 0.6692826747894287 -0.5883941650390625 0.4537103772163391
  outer loop
  vertex 0.4126493632793427 -0.2533621788024902 0.4128876030445099
  vertex 0.3810415267944336 -0.1702834069728851 0.5672540664672852
  vertex 0.2093546390533447 -0.368306040763855 0.5637092590332031
  endloop
 endfacet

 facet normal 0.9125432968139648 -0.1568661332130432 0.3777006864547729
  outer loop
  vertex 0.4413914680480957 -0.1124270260334015 0.4844606816768646
  vertex 0.4244516491889954 -0.1702569127082825 0.5013703107833862
  vertex 0.4868791699409485 -0.1701969802379608 0.3505672216415405
  endloop
 endfacet

 facet normal 0.6531206369400024 0.6533302664756775 0.382874608039856
  outer loop
  vertex 0.3685166835784912 0.2093155235052109 0.5637092590332031
  vertex 0.2535718977451324 0.4126101732254028 0.4128877222537994
  vertex 0.2093420624732971 0.3684647679328918 0.5636653900146484
  endloop
 endfacet

 facet normal 0.6532775163650513 0.6532818078994751 0.3826898038387299
  outer loop
  vertex 0.2535718977451324 0.4126101732254028 0.4128877222537994
  vertex 0.3685166835784912 0.2093155235052109 0.5637092590332031
  vertex 0.2768064439296722 0.435799777507782 0.3336382806301117
  endloop
 endfacet

 facet normal -0.9514912962913513 -0.2353200167417526 0.1982140839099884
  outer loop
  vertex -0.1941168010234833 -0.4547731280326843 0.369974821805954
  vertex -0.1702337265014648 -0.4083507061004639 0.5397340059280396
  vertex -0.2085032761096954 -0.1703100651502609 0.6386300325393677
  endloop
 endfacet

 facet normal -0.9958058595657349 -0.08418910950422287 0.03581751510500908
  outer loop
  vertex -0.2324276268482208 0.1126568019390106 0.638594388961792
  vertex -0.1941168010234833 -0.4547731280326843 0.369974821805954
  vertex -0.2085032761096954 -0.1703100651502609 0.6386300325393677
  endloop
 endfacet

 facet normal -0.9959293603897095 -0.08341335505247116 0.03416117280721664
  outer loop
  vertex -0.1940931081771851 -0.4797692894935608 0.309630960226059
  vertex -0.1941168010234833 -0.4547731280326843 0.369974821805954
  vertex -0.2324276268482208 0.1126568019390106 0.638594388961792
  endloop
 endfacet

 facet normal -0.6779667735099792 -0.6792146563529968 0.281120240688324
  outer loop
  vertex -0.1941168010234833 -0.4547731280326843 0.369974821805954
  vertex -0.1700908243656158 -0.5580893754959106 0.1782949268817902
  vertex -0.1702337265014648 -0.4083507061004639 0.5397340059280396
  endloop
 endfacet

 facet normal -0.6781300902366638 -0.679088294506073 0.2810315489768982
  outer loop
  vertex -0.1700908243656158 -0.5580893754959106 0.1782949268817902
  vertex -0.1941168010234833 -0.4547731280326843 0.369974821805954
  vertex -0.1940931081771851 -0.4797692894935608 0.309630960226059
  endloop
 endfacet

 facet normal -0.9955465793609619 0.09427040815353394 -0.0002498360699974
  outer loop
  vertex -0.2323633432388306 0.1124637871980667 0.1663204729557037
  vertex -0.2324272990226746 0.1125876307487488 0.467901200056076
  vertex -0.1940105557441711 0.5173099040985107 0.09841769933700562
  endloop
 endfacet

 facet normal -0.9955287575721741 0.09446009993553162 -4.019069820060395e-05
  outer loop
  vertex -0.2324272990226746 0.1125876307487488 0.467901200056076
  vertex -0.2324276268482208 0.1126568019390106 0.638594388961792
  vertex -0.1940105557441711 0.5173099040985107 0.09841769933700562
  endloop
 endfacet

 facet normal -0.8706352710723877 -2.984518869197927e-05 -0.4919292032718658
  outer loop
  vertex -0.1940109729766846 -0.5172011256217957 0.09848114848136902
  vertex -0.2323633432388306 0.1124637871980667 0.1663204729557037
  vertex -0.1940105557441711 0.5173099040985107 0.09841769933700562
  endloop
 endfacet

 facet normal -0.998151421546936 -0.060776486992836 -0.0001867168030003086
  outer loop
  vertex -0.1940109729766846 -0.5172011256217957 0.09848114848136902
  vertex -0.2324272990226746 0.1125876307487488 0.467901200056076
  vertex -0.2323633432388306 0.1124637871980667 0.1663204729557037
  endloop
 endfacet

 facet normal -0.9973763823509216 -0.07134558260440826 0.01225983258336782
  outer loop
  vertex -0.1940109729766846 -0.5172011256217957 0.09848114848136902
  vertex -0.1940931081771851 -0.4797692894935608 0.309630960226059
  vertex -0.2324276268482208 0.1126568019390106 0.638594388961792
  endloop
 endfacet

 facet normal -0.9981440305709839 -0.06089891120791435 2.276150735269766e-05
  outer loop
  vertex -0.2324272990226746 0.1125876307487488 0.467901200056076
  vertex -0.1940109729766846 -0.5172011256217957 0.09848114848136902
  vertex -0.2324276268482208 0.1126568019390106 0.638594388961792
  endloop
 endfacet

 facet normal -0.862862765789032 -0.5054382681846619 -0.0003344739088788629
  outer loop
  vertex -0.1700908243656158 -0.5580893754959106 0.1782949268817902
  vertex -0.1940109729766846 -0.5172011256217957 0.09848114848136902
  vertex -0.1700759828090668 -0.5580889582633972 0.1393767595291138
  endloop
 endfacet

 facet normal -0.914673924446106 -0.3980484008789062 0.07020864635705948
  outer loop
  vertex -0.1940109729766846 -0.5172011256217957 0.09848114848136902
  vertex -0.1700908243656158 -0.5580893754959106 0.1782949268817902
  vertex -0.1940931081771851 -0.4797692894935608 0.309630960226059
  endloop
 endfacet

 facet normal -0.1562660336494446 0.3779612183570862 -0.9125384092330933
  outer loop
  vertex -0.1700426042079926 0.476423978805542 0.05753976106643677
  vertex -0.1122263967990875 0.5387405157089233 0.07344979047775269
  vertex -0.1122122704982758 0.4594911336898804 0.04062333703041077
  endloop
 endfacet

 facet normal -0.8626649379730225 -3.069723970838822e-05 -0.5057757496833801
  outer loop
  vertex -0.1700426042079926 0.476423978805542 0.05753976106643677
  vertex -0.1940109729766846 -0.5172011256217957 0.09848114848136902
  vertex -0.1940105557441711 0.5173099040985107 0.09841769933700562
  endloop
 endfacet

 facet normal -0.8626401424407959 -3.30425646097865e-05 -0.5058180689811707
  outer loop
  vertex -0.1940109729766846 -0.5172011256217957 0.09848114848136902
  vertex -0.1700426042079926 0.476423978805542 0.05753976106643677
  vertex -0.1700424253940582 -0.4763147830963135 0.0576016902923584
  endloop
 endfacet

 facet normal -0.2791331708431244 0.005985784344375134 -0.9602338075637817
  outer loop
  vertex -0.1700426042079926 0.476423978805542 0.05753976106643677
  vertex -0.1122122704982758 0.4594911336898804 0.04062333703041077
  vertex -0.1122044324874878 -0.2574871778488159 0.03615164756774902
  endloop
 endfacet

 facet normal -0.3475185334682465 -6.101516555645503e-05 -0.9376732110977173
  outer loop
  vertex -0.1700424253940582 -0.4763147830963135 0.0576016902923584
  vertex -0.1700426042079926 0.476423978805542 0.05753976106643677
  vertex -0.1122044324874878 -0.2574871778488159 0.03615164756774902
  endloop
 endfacet

 facet normal -0.8361442089080811 -0.07062589377164841 0.5439438223838806
  outer loop
  vertex -0.1703028380870819 -0.01937346160411835 0.7169489860534668
  vertex -0.2324276268482208 0.1126568019390106 0.638594388961792
  vertex -0.2085032761096954 -0.1703100651502609 0.6386300325393677
  endloop
 endfacet

 facet normal -0.2763840854167938 -0.1532821357250214 0.9487446546554565
  outer loop
  vertex -0.1703028380870819 -0.01937346160411835 0.7169489860534668
  vertex -0.1066250950098038 -0.1341849714517593 0.7169500589370728
  vertex -0.07771733403205872 -0.08132821321487427 0.7339110374450684
  endloop
 endfacet

 facet normal -0.1042758226394653 -0.2517164647579193 0.9621670246124268
  outer loop
  vertex -0.1066250950098038 -0.1341849714517593 0.7169500589370728
  vertex -0.002400681376457214 -0.1125258579850197 0.7339117527008057
  vertex -0.07771733403205872 -0.08132821321487427 0.7339110374450684
  endloop
 endfacet

 facet normal -0.1042672395706177 -0.2517513036727905 0.9621588587760925
  outer loop
  vertex -0.002400681376457214 -0.1125258579850197 0.7339117527008057
  vertex -0.1066250950098038 -0.1341849714517593 0.7169500589370728
  vertex -0.01933416724205017 -0.1703421473503113 0.7169489860534668
  endloop
 endfacet

 facet normal 1.089435954781948e-05 -0.2815281748771667 0.9595530033111572
  outer loop
  vertex 0.01958411931991577 -0.1703422665596008 0.7169485092163086
  vertex -0.002400681376457214 -0.1125258579850197 0.7339117527008057
  vertex -0.01933416724205017 -0.1703421473503113 0.7169489860534668
  endloop
 endfacet

 facet normal 0.0002095527452183887 -0.2814585864543915 0.9595733880996704
  outer loop
  vertex -0.002400681376457214 -0.1125258579850197 0.7339117527008057
  vertex 0.01958411931991577 -0.1703422665596008 0.7169485092163086
  vertex 0.002649560570716858 -0.1125255525112152 0.7339107990264893
  endloop
 endfacet

 facet normal 0.199070006608963 -0.199052169919014 0.9595568180084229
  outer loop
  vertex 0.134395569562912 -0.1066652238368988 0.7169487476348877
  vertex 0.07796724140644073 -0.0813291072845459 0.7339111566543579
  vertex 0.1068751066923141 -0.1341844201087952 0.716949462890625
  endloop
 endfacet

 facet normal 0.1042648404836655 -0.2517394721508026 0.9621621966362
  outer loop
  vertex 0.07796724140644073 -0.0813291072845459 0.7339111566543579
  vertex 0.01958411931991577 -0.1703422665596008 0.7169485092163086
  vertex 0.1068751066923141 -0.1341844201087952 0.716949462890625
  endloop
 endfacet

 facet normal 0.1042656749486923 -0.2517399489879608 0.9621620178222656
  outer loop
  vertex 0.01958411931991577 -0.1703422665596008 0.7169485092163086
  vertex 0.07796724140644073 -0.0813291072845459 0.7339111566543579
  vertex 0.002649560570716858 -0.1125255525112152 0.7339107990264893
  endloop
 endfacet

 facet normal 0.0002006698050536215 -0.0004959415527991951 0.9999998807907104
  outer loop
  vertex 0.07796724140644073 -0.0813291072845459 0.7339111566543579
  vertex -0.002400681376457214 -0.1125258579850197 0.7339117527008057
  vertex 0.002649560570716858 -0.1125255525112152 0.7339107990264893
  endloop
 endfacet

 facet normal 0.1153522953391075 -1.582146865075629e-06 -0.9933246374130249
  outer loop
  vertex 0.1124534010887146 -0.2576226592063904 0.03604385256767273
  vertex 0.1124521493911743 -0.08692978322505951 0.0360434353351593
  vertex 0.2984435558319092 -0.375335693359375 0.0576426088809967
  endloop
 endfacet

 facet normal 0.1158310174942017 0.0003113253624178469 -0.9932689070701599
  outer loop
  vertex 0.1124521493911743 -0.08692978322505951 0.0360434353351593
  vertex 0.1124536618590355 0.2576584815979004 0.03615161776542664
  vertex 0.2984435558319092 -0.375335693359375 0.0576426088809967
  endloop
 endfacet

 facet normal 3.785246690313215e-06 -2.444319306960097e-06 -1
  outer loop
  vertex -0.1026743054389954 -0.2615700364112854 0.03604304790496826
  vertex 0.1124521493911743 -0.08692978322505951 0.0360434353351593
  vertex 0.1124534010887146 -0.2576226592063904 0.03604385256767273
  endloop
 endfacet

 facet normal -0.9186567068099976 0.3875223100185394 0.07678806036710739
  outer loop
  vertex -0.1941011548042297 0.4709927439689636 0.3310802578926086
  vertex -0.1700910329818726 0.5581979155540466 0.1782325506210327
  vertex -0.1940105557441711 0.5173099040985107 0.09841769933700562
  endloop
 endfacet

 facet normal -0.9915234446525574 0.1275012195110321 0.02499615773558617
  outer loop
  vertex -0.2324276268482208 0.1126568019390106 0.638594388961792
  vertex -0.1941011548042297 0.4709927439689636 0.3310802578926086
  vertex -0.1940105557441711 0.5173099040985107 0.09841769933700562
  endloop
 endfacet

 facet normal -0.8628684878349304 0.5054284334182739 -0.0003325709549244493
  outer loop
  vertex -0.1700910329818726 0.5581979155540466 0.1782325506210327
  vertex -0.1700758934020996 0.5581981539726257 0.1393146514892578
  vertex -0.1940105557441711 0.5173099040985107 0.09841769933700562
  endloop
 endfacet

 facet normal 0.7933850884437561 0.5299344658851624 -0.299515575170517
  outer loop
  vertex 0.1942844688892365 0.542366623878479 0.1588266789913177
  vertex 0.435804158449173 0.2767365574836731 0.3286063969135284
  vertex 0.4647091031074524 0.2238770574331284 0.3116479218006134
  endloop
 endfacet

 facet normal 0.1562670767307281 0.3779588341712952 -0.9125391840934753
  outer loop
  vertex 0.1124762669205666 0.5388023257255554 0.07351216673851013
  vertex 0.1702911406755447 0.4764857888221741 0.05760213732719421
  vertex 0.112461656332016 0.4595531225204468 0.04068595170974731
  endloop
 endfacet

 facet normal 0.156262218952179 0.3779550194740295 -0.9125416278839111
  outer loop
  vertex 0.1702997386455536 0.514850378036499 0.07349339127540588
  vertex 0.1702911406755447 0.4764857888221741 0.05760213732719421
  vertex 0.1124762669205666 0.5388023257255554 0.07351216673851013
  endloop
 endfacet

 facet normal 0.2695778012275696 0.04051096364855766 -0.9621261358261108
  outer loop
  vertex 0.1702911406755447 0.4764857888221741 0.05760213732719421
  vertex 0.2984435558319092 -0.375335693359375 0.0576426088809967
  vertex 0.112461656332016 0.4595531225204468 0.04068595170974731
  endloop
 endfacet

 facet normal 0.6105421781539917 0.0918157547712326 -0.7866436243057251
  outer loop
  vertex 0.1702911406755447 0.4764857888221741 0.05760213732719421
  vertex 0.4674662053585052 0.1125018745660782 0.2457667291164398
  vertex 0.2984435558319092 -0.375335693359375 0.0576426088809967
  endloop
 endfacet

 facet normal 0.2815938591957092 0.6782581210136414 0.6787274479866028
  outer loop
  vertex 0.170493483543396 0.3810022473335266 0.5672543048858643
  vertex 0.206816166639328 0.3659396171569824 0.5672367811203003
  vertex 0.2093420624732971 0.3684647679328918 0.5636653900146484
  endloop
 endfacet

 facet normal 0.4998445510864258 0.500119149684906 0.7071324586868286
  outer loop
  vertex 0.206816166639328 0.3659396171569824 0.5672367811203003
  vertex 0.3685166835784912 0.2093155235052109 0.5637092590332031
  vertex 0.2093420624732971 0.3684647679328918 0.5636653900146484
  endloop
 endfacet

 facet normal 0.2818215489387512 0.6792849898338318 0.6776050925254822
  outer loop
  vertex 0.1684588491916656 0.4093419909477234 0.5396904945373535
  vertex 0.170493483543396 0.3810022473335266 0.5672543048858643
  vertex 0.2093420624732971 0.3684647679328918 0.5636653900146484
  endloop
 endfacet

 facet normal 0.2817829251289368 0.6792914867401123 0.6776146292686462
  outer loop
  vertex 0.170493483543396 0.3810022473335266 0.5672543048858643
  vertex 0.1684588491916656 0.4093419909477234 0.5396904945373535
  vertex 0.1126688569784164 0.4085259437561035 0.5637085437774658
  endloop
 endfacet

 facet normal 0.5342414975166321 0.7560686469078064 0.3780822157859802
  outer loop
  vertex 0.2535718977451324 0.4126101732254028 0.4128877222537994
  vertex 0.1684588491916656 0.4093419909477234 0.5396904945373535
  vertex 0.2093420624732971 0.3684647679328918 0.5636653900146484
  endloop
 endfacet

 facet normal -0.5172004103660583 0.3575324416160583 0.7776080965995789
  outer loop
  vertex -0.2084758877754211 0.1704821735620499 0.6385669708251953
  vertex -0.1373182535171509 0.1375286430120468 0.7010467052459717
  vertex -0.1702443659305573 0.3809844255447388 0.5672097206115723
  endloop
 endfacet

 facet normal -0.521628737449646 0.3493840098381042 0.7783536314964294
  outer loop
  vertex -0.1373182535171509 0.1375286430120468 0.7010467052459717
  vertex -0.2084758877754211 0.1704821735620499 0.6385669708251953
  vertex -0.1341453492641449 0.1068370193243027 0.7169498205184937
  endloop
 endfacet

 facet normal -0.5531115531921387 0.5892112255096436 0.5889803767204285
  outer loop
  vertex -0.1702340245246887 0.4085028171539307 0.5396902561187744
  vertex -0.1941856741905212 0.3835067749023438 0.5422030687332153
  vertex -0.1702443659305573 0.3809844255447388 0.5672097206115723
  endloop
 endfacet

 facet normal -0.2814017534255981 0.6785987615585327 0.6784665584564209
  outer loop
  vertex -0.1124214380979538 0.4049362540245056 0.5672359466552734
  vertex -0.1702340245246887 0.4085028171539307 0.5396902561187744
  vertex -0.1702443659305573 0.3809844255447388 0.5672097206115723
  endloop
 endfacet

 facet normal 0.1485300660133362 0.9165573120117188 0.3712972402572632
  outer loop
  vertex 0.1125996485352516 0.479946494102478 0.3914369344711304
  vertex 0.1703992784023285 0.4958329200744629 0.3290992677211761
  vertex 0.1125095784664154 0.5752012729644775 0.1563339531421661
  endloop
 endfacet

 facet normal 0.1496345400810242 0.9133805632591248 0.3786101341247559
  outer loop
  vertex 0.1684588491916656 0.4093419909477234 0.5396904945373535
  vertex 0.1125996485352516 0.479946494102478 0.3914369344711304
  vertex 0.1126688569784164 0.4085259437561035 0.5637085437774658
  endloop
 endfacet

 facet normal 0.1550696790218353 0.9133303165435791 0.3765383660793304
  outer loop
  vertex 0.1125996485352516 0.479946494102478 0.3914369344711304
  vertex 0.1684588491916656 0.4093419909477234 0.5396904945373535
  vertex 0.1703992784023285 0.4958329200744629 0.3290992677211761
  endloop
 endfacet

 facet normal 0.1541472524404526 -0.9133551120758057 0.3768567442893982
  outer loop
  vertex 0.1125773787498474 -0.5036541819572449 0.3336395919322968
  vertex 0.1703406274318695 -0.5580273270606995 0.1782329678535461
  vertex 0.1684714406728745 -0.4091846346855164 0.5397347211837769
  endloop
 endfacet

 facet normal -0.9321963787078857 -0.2561237812042236 0.2557547688484192
  outer loop
  vertex -0.1702337265014648 -0.4083507061004639 0.5397340059280396
  vertex -0.1702445149421692 -0.3808307647705078 0.5672543048858643
  vertex -0.2085032761096954 -0.1703100651502609 0.6386300325393677
  endloop
 endfacet

 facet normal -0.1568961590528488 -0.9123399257659912 0.3781793117523193
  outer loop
  vertex -0.1123505532741547 -0.4797760844230652 0.3914376497268677
  vertex -0.1124196350574493 -0.4083548188209534 0.5637094974517822
  vertex -0.1702337265014648 -0.4083507061004639 0.5397340059280396
  endloop
 endfacet

 facet normal -0.1575946062803268 -0.9123337268829346 0.3779036700725555
  outer loop
  vertex -0.1700908243656158 -0.5580893754959106 0.1782949268817902
  vertex -0.1123505532741547 -0.4797760844230652 0.3914376497268677
  vertex -0.1702337265014648 -0.4083507061004639 0.5397340059280396
  endloop
 endfacet

 facet normal -0.1278427392244339 -0.9192334413528442 0.3723789751529694
  outer loop
  vertex -0.1123505532741547 -0.4797760844230652 0.3914376497268677
  vertex -0.1700908243656158 -0.5580893754959106 0.1782949268817902
  vertex -0.1122598946094513 -0.5750287771224976 0.1563334167003632
  endloop
 endfacet

 facet normal -0.001900418545119464 -0.9268199801445007 0.3755012452602386
  outer loop
  vertex 0.1125773787498474 -0.5036541819572449 0.3336395919322968
  vertex -0.1123505532741547 -0.4797760844230652 0.3914376497268677
  vertex -0.1122598946094513 -0.5750287771224976 0.1563334167003632
  endloop
 endfacet

 facet normal 0.877325713634491 -0.4798953533172607 8.677005826029927e-05
  outer loop
  vertex 0.3273243606090546 -0.4860495924949646 0.1563340127468109
  vertex 0.3562436997890472 -0.4331834316253662 0.1394173204898834
  vertex 0.3273232579231262 -0.4860506653785706 0.1613846123218536
  endloop
 endfacet

 facet normal 0.755994439125061 -0.5344758629798889 -0.3778993487358093
  outer loop
  vertex 0.3562436997890472 -0.4331834316253662 0.1394173204898834
  vertex 0.3273243606090546 -0.4860495924949646 0.1563340127468109
  vertex 0.3450194299221039 -0.4219377636909485 0.1010577976703644
  endloop
 endfacet

 facet normal 0.4797861576080322 -0.8773854970932007 -8.68349670781754e-05
  outer loop
  vertex 0.2744520604610443 -0.51496422290802 0.1782951056957245
  vertex 0.3273243606090546 -0.4860495924949646 0.1563340127468109
  vertex 0.3273232579231262 -0.4860506653785706 0.1613846123218536
  endloop
 endfacet

 facet normal 0.9238800406455994 -0.0002152746310457587 -0.3826822936534882
  outer loop
  vertex 0.5038197040557861 -0.1123647540807724 0.3286058902740479
  vertex 0.4709931612014771 -0.1123323291540146 0.2493553757667542
  vertex 0.5038644075393677 0.1125354319810867 0.3285874426364899
  endloop
 endfacet

 facet normal 0.3320055603981018 -0.8716317415237427 0.3605974018573761
  outer loop
  vertex 0.1703406274318695 -0.5580273270606995 0.1782329678535461
  vertex 0.1704068183898926 -0.4867144227027893 0.3505487740039825
  vertex 0.1684714406728745 -0.4091846346855164 0.5397347211837769
  endloop
 endfacet

 facet normal 0.5342003107070923 -0.7560521960258484 0.3781734108924866
  outer loop
  vertex 0.2190219014883041 -0.4596364498138428 0.3674637973308563
  vertex 0.2093546390533447 -0.368306040763855 0.5637092590332031
  vertex 0.1684714406728745 -0.4091846346855164 0.5397347211837769
  endloop
 endfacet

 facet normal 0.3564595878124237 -0.8632461428642273 0.357411116361618
  outer loop
  vertex 0.1704068183898926 -0.4867144227027893 0.3505487740039825
  vertex 0.2190219014883041 -0.4596364498138428 0.3674637973308563
  vertex 0.1684714406728745 -0.4091846346855164 0.5397347211837769
  endloop
 endfacet

 facet normal -0.0406099408864975 -0.2823894023895264 -0.9584399461746216
  outer loop
  vertex -0.1700424253940582 -0.4763147830963135 0.0576016902923584
  vertex 0.1124615222215652 -0.4593190550804138 0.0406242311000824
  vertex -0.112226277589798 -0.5386311411857605 0.07351252436637878
  endloop
 endfacet

 facet normal 0.1012098118662834 -0.02258276753127575 -0.9946088194847107
  outer loop
  vertex 0.1124615222215652 -0.4593190550804138 0.0406242311000824
  vertex 0.1124534010887146 -0.2576226592063904 0.03604385256767273
  vertex 0.2984435558319092 -0.375335693359375 0.0576426088809967
  endloop
 endfacet

 facet normal 0.0004203271819278598 -0.02270339615643024 -0.9997421503067017
  outer loop
  vertex 0.1124615222215652 -0.4593190550804138 0.0406242311000824
  vertex -0.1026743054389954 -0.2615700364112854 0.03604304790496826
  vertex 0.1124534010887146 -0.2576226592063904 0.03604385256767273
  endloop
 endfacet

 facet normal -0.05480166524648666 -0.08305155485868454 -0.9950373768806458
  outer loop
  vertex 0.1124615222215652 -0.4593190550804138 0.0406242311000824
  vertex -0.1700424253940582 -0.4763147830963135 0.0576016902923584
  vertex -0.1122044324874878 -0.2574871778488159 0.03615164756774902
  endloop
 endfacet

 facet normal -0.03981268033385277 -0.06641026586294174 -0.9969978928565979
  outer loop
  vertex -0.1026743054389954 -0.2615700364112854 0.03604304790496826
  vertex 0.1124615222215652 -0.4593190550804138 0.0406242311000824
  vertex -0.1122044324874878 -0.2574871778488159 0.03615164756774902
  endloop
 endfacet

 facet normal -0.0002021048858296126 0.7073044180870056 0.7069091796875
  outer loop
  vertex -0.1124214380979538 0.4049362540245056 0.5672359466552734
  vertex 0.1126709505915642 0.4049550890922546 0.5672813653945923
  vertex 0.1126688569784164 0.4085259437561035 0.5637085437774658
  endloop
 endfacet

 facet normal 0.2815029621124268 0.6787837743759155 0.6782394647598267
  outer loop
  vertex 0.1126709505915642 0.4049550890922546 0.5672813653945923
  vertex 0.170493483543396 0.3810022473335266 0.5672543048858643
  vertex 0.1126688569784164 0.4085259437561035 0.5637085437774658
  endloop
 endfacet

 facet normal 0.4714750647544861 -0.1952859163284302 0.8599853515625
  outer loop
  vertex 0.1705522090196609 -0.01937294378876686 0.7169487476348877
  vertex 0.134395569562912 -0.1066652238368988 0.7169487476348877
  vertex 0.4049934446811676 -0.1124598681926727 0.5672813653945923
  endloop
 endfacet

 facet normal 0.5380954146385193 -4.970657300873427e-06 0.8428839445114136
  outer loop
  vertex 0.1705518215894699 0.01954422891139984 0.7169492244720459
  vertex 0.1705522090196609 -0.01937294378876686 0.7169487476348877
  vertex 0.4049934446811676 -0.1124598681926727 0.5672813653945923
  endloop
 endfacet

 facet normal 0.4714796245098114 0.1952868551015854 0.8599826097488403
  outer loop
  vertex 0.1705518215894699 0.01954422891139984 0.7169492244720459
  vertex 0.3659918010234833 0.2067886888980865 0.567280650138855
  vertex 0.1343959122896194 0.1068370118737221 0.7169487476348877
  endloop
 endfacet

 facet normal 0.499814361333847 0.5000869631767273 0.7071766257286072
  outer loop
  vertex 0.206816166639328 0.3659396171569824 0.5672367811203003
  vertex 0.3659918010234833 0.2067886888980865 0.567280650138855
  vertex 0.3685166835784912 0.2093155235052109 0.5637092590332031
  endloop
 endfacet

 facet normal 0.4117175042629242 -0.3667752146720886 0.834244966506958
  outer loop
  vertex 0.2068281918764114 -0.3657813668251038 0.5672814846038818
  vertex 0.3810415267944336 -0.1702834069728851 0.5672540664672852
  vertex 0.134395569562912 -0.1066652238368988 0.7169487476348877
  endloop
 endfacet

 facet normal 0.5284333229064941 -0.4708015918731689 0.7064730525016785
  outer loop
  vertex 0.3810415267944336 -0.1702834069728851 0.5672540664672852
  vertex 0.2068281918764114 -0.3657813668251038 0.5672814846038818
  vertex 0.2093546390533447 -0.368306040763855 0.5637092590332031
  endloop
 endfacet

 facet normal 0.3804969787597656 -0.3804908990859985 0.8428812026977539
  outer loop
  vertex 0.2068281918764114 -0.3657813668251038 0.5672814846038818
  vertex 0.134395569562912 -0.1066652238368988 0.7169487476348877
  vertex 0.1068751066923141 -0.1341844201087952 0.716949462890625
  endloop
 endfacet

 facet normal 0.1952862143516541 -0.4714771211147308 0.8599840998649597
  outer loop
  vertex 0.01958411931991577 -0.1703422665596008 0.7169485092163086
  vertex 0.2068281918764114 -0.3657813668251038 0.5672814846038818
  vertex 0.1068751066923141 -0.1341844201087952 0.716949462890625
  endloop
 endfacet

 facet normal 0.2809095084667206 -0.6788317561149597 0.6784374713897705
  outer loop
  vertex 0.2093546390533447 -0.368306040763855 0.5637092590332031
  vertex 0.2068281918764114 -0.3657813668251038 0.5672814846038818
  vertex 0.1684714406728745 -0.4091846346855164 0.5397347211837769
  endloop
 endfacet

 facet normal 0.6533291935920715 -0.6531199216842651 0.3828777372837067
  outer loop
  vertex 0.2831388413906097 -0.4419476985931396 0.312187135219574
  vertex 0.4126493632793427 -0.2533621788024902 0.4128876030445099
  vertex 0.2093546390533447 -0.368306040763855 0.5637092590332031
  endloop
 endfacet

 facet normal 0.5345042943954468 -0.7558717727661133 0.3781044483184814
  outer loop
  vertex 0.2190219014883041 -0.4596364498138428 0.3674637973308563
  vertex 0.2831388413906097 -0.4419476985931396 0.312187135219574
  vertex 0.2093546390533447 -0.368306040763855 0.5637092590332031
  endloop
 endfacet

 facet normal 0.9238736629486084 3.040456476810505e-06 0.3826975524425507
  outer loop
  vertex 0.408564031124115 -0.1124584153294563 0.5637097358703613
  vertex 0.4413914680480957 -0.1124270260334015 0.4844606816768646
  vertex 0.4710381627082825 0.1125692427158356 0.4128885269165039
  endloop
 endfacet

 facet normal 0.9124702215194702 -0.1567830145359039 0.3779117465019226
  outer loop
  vertex 0.4413914680480957 -0.1124270260334015 0.4844606816768646
  vertex 0.408564031124115 -0.1124584153294563 0.5637097358703613
  vertex 0.4244516491889954 -0.1702569127082825 0.5013703107833862
  endloop
 endfacet

 facet normal 0.6786798238754272 -0.2814459502696991 0.6783671379089355
  outer loop
  vertex 0.3810415267944336 -0.1702834069728851 0.5672540664672852
  vertex 0.408564031124115 -0.1124584153294563 0.5637097358703613
  vertex 0.4049934446811676 -0.1124598681926727 0.5672813653945923
  endloop
 endfacet

 facet normal 0.7847929000854492 -0.3418453931808472 0.5169544219970703
  outer loop
  vertex 0.408564031124115 -0.1124584153294563 0.5637097358703613
  vertex 0.3810415267944336 -0.1702834069728851 0.5672540664672852
  vertex 0.4244516491889954 -0.1702569127082825 0.5013703107833862
  endloop
 endfacet

 facet normal 0.8628742098808289 0.3574888110160828 0.3572811484336853
  outer loop
  vertex 0.4093936383724213 0.1684317290782928 0.5397357940673828
  vertex 0.4869260787963867 0.1703682988882065 0.3505485355854034
  vertex 0.4206192493438721 0.1796794980764389 0.5013704299926758
  endloop
 endfacet

 facet normal 0.923602283000946 0.3833522200584412 -0.0001786217762855813
  outer loop
  vertex 0.4869260787963867 0.1703682988882065 0.3505485355854034
  vertex 0.4869249165058136 0.170352965593338 0.3116308450698853
  vertex 0.4647091031074524 0.2238770574331284 0.3116479218006134
  endloop
 endfacet

 facet normal -0.1562727391719818 -0.377977728843689 -0.9125303626060486
  outer loop
  vertex -0.1700495779514313 -0.514678955078125 0.07349368929862976
  vertex -0.1700424253940582 -0.4763147830963135 0.0576016902923584
  vertex -0.112226277589798 -0.5386311411857605 0.07351252436637878
  endloop
 endfacet

 facet normal -0.6783403158187866 -0.2810834050178528 -0.6788568496704102
  outer loop
  vertex -0.1700495779514313 -0.514678955078125 0.07349368929862976
  vertex -0.1940109729766846 -0.5172011256217957 0.09848114848136902
  vertex -0.1700424253940582 -0.4763147830963135 0.0576016902923584
  endloop
 endfacet

 facet normal -0.3267198503017426 -0.7891477942466736 -0.5200961828231812
  outer loop
  vertex -0.1700495779514313 -0.514678955078125 0.07349368929862976
  vertex -0.112226277589798 -0.5386311411857605 0.07351252436637878
  vertex -0.1700759828090668 -0.5580889582633972 0.1393767595291138
  endloop
 endfacet

 facet normal -0.4371231198310852 -0.750950038433075 -0.4949721693992615
  outer loop
  vertex -0.1940109729766846 -0.5172011256217957 0.09848114848136902
  vertex -0.1700495779514313 -0.514678955078125 0.07349368929862976
  vertex -0.1700759828090668 -0.5580889582633972 0.1393767595291138
  endloop
 endfacet

 facet normal -0.5642605423927307 -0.2632256150245667 0.7825102210044861
  outer loop
  vertex -0.1373176276683807 -0.1373565942049026 0.7010464668273926
  vertex -0.1703028380870819 -0.01937346160411835 0.7169489860534668
  vertex -0.2085032761096954 -0.1703100651502609 0.6386300325393677
  endloop
 endfacet

 facet normal -0.4275183081626892 -0.237106129527092 0.8723582029342651
  outer loop
  vertex -0.1703028380870819 -0.01937346160411835 0.7169489860534668
  vertex -0.1373176276683807 -0.1373565942049026 0.7010464668273926
  vertex -0.1066250950098038 -0.1341849714517593 0.7169500589370728
  endloop
 endfacet

 facet normal -0.5165729522705078 -0.3576458990573883 0.777972936630249
  outer loop
  vertex -0.1702445149421692 -0.3808307647705078 0.5672543048858643
  vertex -0.1373176276683807 -0.1373565942049026 0.7010464668273926
  vertex -0.2085032761096954 -0.1703100651502609 0.6386300325393677
  endloop
 endfacet

 facet normal -0.3878639340400696 -0.403049647808075 0.8289226293563843
  outer loop
  vertex -0.1373176276683807 -0.1373565942049026 0.7010464668273926
  vertex -0.1702445149421692 -0.3808307647705078 0.5672543048858643
  vertex -0.1066250950098038 -0.1341849714517593 0.7169500589370728
  endloop
 endfacet

 facet normal -0.595176100730896 0.2465225905179977 0.7648476958274841
  outer loop
  vertex -0.1703034043312073 0.01954515278339386 0.7169485092163086
  vertex -0.1341453492641449 0.1068370193243027 0.7169498205184937
  vertex -0.2324276268482208 0.1126568019390106 0.638594388961792
  endloop
 endfacet

 facet normal -0.7835906744003296 -3.137336079817032e-06 0.6212775111198425
  outer loop
  vertex -0.1703028380870819 -0.01937346160411835 0.7169489860534668
  vertex -0.1703034043312073 0.01954515278339386 0.7169485092163086
  vertex -0.2324276268482208 0.1126568019390106 0.638594388961792
  endloop
 endfacet

 facet normal 0.01148259826004505 0.0003138758183922619 -0.9999340772628784
  outer loop
  vertex 0.1124521493911743 -0.08692978322505951 0.0360434353351593
  vertex 0.1029238328337669 0.2617419362068176 0.03604346513748169
  vertex 0.1124536618590355 0.2576584815979004 0.03615161776542664
  endloop
 endfacet

 facet normal 1.693973786132119e-06 1.317659155120054e-07 -1
  outer loop
  vertex 0.1029238328337669 0.2617419362068176 0.03604346513748169
  vertex 0.1124521493911743 -0.08692978322505951 0.0360434353351593
  vertex -0.1026743054389954 -0.2615700364112854 0.03604304790496826
  endloop
 endfacet

 facet normal -0.009752862155437469 0.003832489717751741 -0.9999451041221619
  outer loop
  vertex 0.1029238328337669 0.2617419362068176 0.03604346513748169
  vertex -0.1026743054389954 -0.2615700364112854 0.03604304790496826
  vertex -0.1122044324874878 -0.2574871778488159 0.03615164756774902
  endloop
 endfacet

 facet normal -0.0155534204095602 0.006235809065401554 -0.9998595714569092
  outer loop
  vertex -0.1122122704982758 0.4594911336898804 0.04062333703041077
  vertex 0.1029238328337669 0.2617419362068176 0.03604346513748169
  vertex -0.1122044324874878 -0.2574871778488159 0.03615164756774902
  endloop
 endfacet

 facet normal 0.0002721410419326276 0.02344970218837261 -0.9997249841690063
  outer loop
  vertex 0.1029238328337669 0.2617419362068176 0.03604346513748169
  vertex -0.1122122704982758 0.4594911336898804 0.04062333703041077
  vertex 0.112461656332016 0.4595531225204468 0.04068595170974731
  endloop
 endfacet

 facet normal 0.0209620650857687 0.02244748547673225 -0.9995282888412476
  outer loop
  vertex 0.1124536618590355 0.2576584815979004 0.03615161776542664
  vertex 0.1029238328337669 0.2617419362068176 0.03604346513748169
  vertex 0.112461656332016 0.4595531225204468 0.04068595170974731
  endloop
 endfacet

 facet normal -0.6785033345222473 0.6785836219787598 -0.2813495993614197
  outer loop
  vertex -0.1700758934020996 0.5581981539726257 0.1393146514892578
  vertex -0.1700600683689117 0.5423074960708618 0.1009500026702881
  vertex -0.1940105557441711 0.5173099040985107 0.09841769933700562
  endloop
 endfacet

 facet normal -0.4370130002498627 0.4947983622550964 -0.751128613948822
  outer loop
  vertex -0.1700600683689117 0.5423074960708618 0.1009500026702881
  vertex -0.1700426042079926 0.476423978805542 0.05753976106643677
  vertex -0.1940105557441711 0.5173099040985107 0.09841769933700562
  endloop
 endfacet

 facet normal -0.34134241938591 0.5170902609825134 -0.7849223613739014
  outer loop
  vertex -0.1700426042079926 0.476423978805542 0.05753976106643677
  vertex -0.1700600683689117 0.5423074960708618 0.1009500026702881
  vertex -0.1122263967990875 0.5387405157089233 0.07344979047775269
  endloop
 endfacet

 facet normal -0.2811395227909088 0.959666907787323 -0.000103460784885101
  outer loop
  vertex -0.1122611165046692 0.5751376748085022 0.1613220870494843
  vertex -0.1700758934020996 0.5581981539726257 0.1393146514892578
  vertex -0.1700910329818726 0.5581979155540466 0.1782325506210327
  endloop
 endfacet

 facet normal 0.008070822805166245 0.9267887473106384 0.3754964768886566
  outer loop
  vertex -0.1122611165046692 0.5751376748085022 0.1613220870494843
  vertex 0.1125996485352516 0.479946494102478 0.3914369344711304
  vertex 0.1125095784664154 0.5752012729644775 0.1563339531421661
  endloop
 endfacet

 facet normal -0.0001665910967858508 0.9240001440048218 0.3823921978473663
  outer loop
  vertex -0.1122611165046692 0.5751376748085022 0.1613220870494843
  vertex -0.1123278588056564 0.5038253664970398 0.3336388170719147
  vertex 0.1125996485352516 0.479946494102478 0.3914369344711304
  endloop
 endfacet

 facet normal 0.7039352059364319 0.7036569714546204 0.09665486961603165
  outer loop
  vertex 0.4358052015304565 0.2767356038093567 0.3336569368839264
  vertex 0.1942844688892365 0.542366623878479 0.1588266789913177
  vertex 0.2768064439296722 0.435799777507782 0.3336382806301117
  endloop
 endfacet

 facet normal 0.7398943305015564 0.6727231740951538 -2.054794094874524e-05
  outer loop
  vertex 0.1942844688892365 0.542366623878479 0.1588266789913177
  vertex 0.4358052015304565 0.2767356038093567 0.3336569368839264
  vertex 0.435804158449173 0.2767365574836731 0.3286063969135284
  endloop
 endfacet

 facet normal 0.133670911192894 0.9072531461715698 -0.3987780511379242
  outer loop
  vertex 0.1703105568885803 0.5423691272735596 0.1010130643844604
  vertex 0.1124762669205666 0.5388023257255554 0.07351216673851013
  vertex 0.1125095784664154 0.5752012729644775 0.1563339531421661
  endloop
 endfacet

 facet normal 0.2808723151683807 0.6785984635353088 -0.6786861419677734
  outer loop
  vertex 0.1703105568885803 0.5423691272735596 0.1010130643844604
  vertex 0.1702997386455536 0.514850378036499 0.07349339127540588
  vertex 0.1124762669205666 0.5388023257255554 0.07351216673851013
  endloop
 endfacet

 facet normal 0.7817144393920898 0.4408314228057861 -0.4411239326000214
  outer loop
  vertex 0.1703105568885803 0.5423691272735596 0.1010130643844604
  vertex 0.4534614682197571 0.212650865316391 0.2732843458652496
  vertex 0.1702997386455536 0.514850378036499 0.07349339127540588
  endloop
 endfacet

 facet normal 0.7919083833694458 0.5148385763168335 -0.3283630013465881
  outer loop
  vertex 0.1703105568885803 0.5423691272735596 0.1010130643844604
  vertex 0.1942844688892365 0.542366623878479 0.1588266789913177
  vertex 0.4647091031074524 0.2238770574331284 0.3116479218006134
  endloop
 endfacet

 facet normal 0.7911624312400818 0.4842004477977753 -0.3736469745635986
  outer loop
  vertex 0.4534614682197571 0.212650865316391 0.2732843458652496
  vertex 0.1703105568885803 0.5423691272735596 0.1010130643844604
  vertex 0.4647091031074524 0.2238770574331284 0.3116479218006134
  endloop
 endfacet

 facet normal 0.5750201940536499 0.7905935645103455 0.2105081081390381
  outer loop
  vertex 0.1942844688892365 0.542366623878479 0.1588266789913177
  vertex 0.2301803231239319 0.4709446430206299 0.3290097415447235
  vertex 0.2768064439296722 0.435799777507782 0.3336382806301117
  endloop
 endfacet

 facet normal 0.3678747415542603 0.8825730681419373 0.2928019464015961
  outer loop
  vertex 0.2301803231239319 0.4709446430206299 0.3290097415447235
  vertex 0.1942844688892365 0.542366623878479 0.1588266789913177
  vertex 0.1703992784023285 0.4958329200744629 0.3290992677211761
  endloop
 endfacet

 facet normal 0.7464560866355896 0.3102335929870605 -0.5886922478675842
  outer loop
  vertex 0.4534614682197571 0.212650865316391 0.2732843458652496
  vertex 0.4710337817668915 0.1703361868858337 0.2732665538787842
  vertex 0.1702997386455536 0.514850378036499 0.07349339127540588
  endloop
 endfacet

 facet normal 0.7247735857963562 0.2635273337364197 -0.6365978121757507
  outer loop
  vertex 0.4710337817668915 0.1703361868858337 0.2732665538787842
  vertex 0.1702911406755447 0.4764857888221741 0.05760213732719421
  vertex 0.1702997386455536 0.514850378036499 0.07349339127540588
  endloop
 endfacet

 facet normal 0.8625459671020508 0.3581240475177765 -0.3574377298355103
  outer loop
  vertex 0.4869249165058136 0.170352965593338 0.3116308450698853
  vertex 0.4710337817668915 0.1703361868858337 0.2732665538787842
  vertex 0.4647091031074524 0.2238770574331284 0.3116479218006134
  endloop
 endfacet

 facet normal 0.8623819351196289 0.3582777976989746 -0.3576792180538177
  outer loop
  vertex 0.4710337817668915 0.1703361868858337 0.2732665538787842
  vertex 0.4534614682197571 0.212650865316391 0.2732843458652496
  vertex 0.4647091031074524 0.2238770574331284 0.3116479218006134
  endloop
 endfacet

 facet normal -0.6786791682243347 0.6785680055618286 0.2809627056121826
  outer loop
  vertex -0.1702340245246887 0.4085028171539307 0.5396902561187744
  vertex -0.1941249668598175 0.4459970593452454 0.3914260864257812
  vertex -0.1941856741905212 0.3835067749023438 0.5422030687332153
  endloop
 endfacet

 facet normal -0.9843636155128479 0.1628660410642624 0.06710432469844818
  outer loop
  vertex -0.1941856741905212 0.3835067749023438 0.5422030687332153
  vertex -0.1941249668598175 0.4459970593452454 0.3914260864257812
  vertex -0.2324276268482208 0.1126568019390106 0.638594388961792
  endloop
 endfacet

 facet normal -0.9843723177909851 0.1628327369689941 0.06705808639526367
  outer loop
  vertex -0.1941249668598175 0.4459970593452454 0.3914260864257812
  vertex -0.1941011548042297 0.4709927439689636 0.3310802578926086
  vertex -0.2324276268482208 0.1126568019390106 0.638594388961792
  endloop
 endfacet

 facet normal -0.6786929368972778 0.6787001490592957 0.2806103229522705
  outer loop
  vertex -0.1941011548042297 0.4709927439689636 0.3310802578926086
  vertex -0.1701578199863434 0.4868866801261902 0.3505484461784363
  vertex -0.1700910329818726 0.5581979155540466 0.1782325506210327
  endloop
 endfacet

 facet normal -0.1568990647792816 0.9125789403915405 0.3776009976863861
  outer loop
  vertex -0.1701578199863434 0.4868866801261902 0.3505484461784363
  vertex -0.1122611165046692 0.5751376748085022 0.1613220870494843
  vertex -0.1700910329818726 0.5581979155540466 0.1782325506210327
  endloop
 endfacet

 facet normal -0.1568864285945892 0.9125794172286987 0.3776050508022308
  outer loop
  vertex -0.1122611165046692 0.5751376748085022 0.1613220870494843
  vertex -0.1701578199863434 0.4868866801261902 0.3505484461784363
  vertex -0.1123278588056564 0.5038253664970398 0.3336388170719147
  endloop
 endfacet

 facet normal -0.6787535548210144 0.6785621047019958 0.2807975709438324
  outer loop
  vertex -0.1941249668598175 0.4459970593452454 0.3914260864257812
  vertex -0.1701578199863434 0.4868866801261902 0.3505484461784363
  vertex -0.1941011548042297 0.4709927439689636 0.3310802578926086
  endloop
 endfacet

 facet normal -0.6786004304885864 0.6786440014839172 0.2809692919254303
  outer loop
  vertex -0.1701578199863434 0.4868866801261902 0.3505484461784363
  vertex -0.1941249668598175 0.4459970593452454 0.3914260864257812
  vertex -0.1702340245246887 0.4085028171539307 0.5396902561187744
  endloop
 endfacet

 facet normal -0.0002215288404840976 0.9237595200538635 0.3829731941223145
  outer loop
  vertex 0.1125996485352516 0.479946494102478 0.3914369344711304
  vertex -0.1123584806919098 0.4709991216659546 0.4128885269165039
  vertex 0.1126688569784164 0.4085259437561035 0.5637085437774658
  endloop
 endfacet

 facet normal -0.0002540126151870936 0.9238798022270203 0.382682740688324
  outer loop
  vertex -0.1123278588056564 0.5038253664970398 0.3336388170719147
  vertex -0.1123584806919098 0.4709991216659546 0.4128885269165039
  vertex 0.1125996485352516 0.479946494102478 0.3914369344711304
  endloop
 endfacet

 facet normal -0.008494782261550426 0.919298529624939 0.3934693336486816
  outer loop
  vertex -0.1123584806919098 0.4709991216659546 0.4128885269165039
  vertex -0.1124214380979538 0.4049362540245056 0.5672359466552734
  vertex 0.1126688569784164 0.4085259437561035 0.5637085437774658
  endloop
 endfacet

 facet normal -0.1296414434909821 0.9115912914276123 0.3901211023330688
  outer loop
  vertex -0.1123584806919098 0.4709991216659546 0.4128885269165039
  vertex -0.1702340245246887 0.4085028171539307 0.5396902561187744
  vertex -0.1124214380979538 0.4049362540245056 0.5672359466552734
  endloop
 endfacet

 facet normal -0.15695421397686 0.912385106086731 0.3780460953712463
  outer loop
  vertex -0.1123584806919098 0.4709991216659546 0.4128885269165039
  vertex -0.1701578199863434 0.4868866801261902 0.3505484461784363
  vertex -0.1702340245246887 0.4085028171539307 0.5396902561187744
  endloop
 endfacet

 facet normal -0.1567705273628235 0.9124774932861328 0.3778993487358093
  outer loop
  vertex -0.1701578199863434 0.4868866801261902 0.3505484461784363
  vertex -0.1123584806919098 0.4709991216659546 0.4128885269165039
  vertex -0.1123278588056564 0.5038253664970398 0.3336388170719147
  endloop
 endfacet

 facet normal 0.0003586173988878727 -0.9278161525726318 0.3730376660823822
  outer loop
  vertex 0.1125086173415184 -0.5749669671058655 0.1562710702419281
  vertex 0.1125773787498474 -0.5036541819572449 0.3336395919322968
  vertex -0.1122598946094513 -0.5750287771224976 0.1563334167003632
  endloop
 endfacet

 facet normal 0.1290389746427536 -0.9200764894485474 0.3698759377002716
  outer loop
  vertex 0.1125773787498474 -0.5036541819572449 0.3336395919322968
  vertex 0.1125086173415184 -0.5749669671058655 0.1562710702419281
  vertex 0.1703406274318695 -0.5580273270606995 0.1782329678535461
  endloop
 endfacet

 facet normal 0.0001479062339058146 -0.9238784313201904 -0.3826860785484314
  outer loop
  vertex 0.1124762445688248 -0.5421403646469116 0.0770212709903717
  vertex 0.1125086173415184 -0.5749669671058655 0.1562710702419281
  vertex -0.1122598946094513 -0.5750287771224976 0.1563334167003632
  endloop
 endfacet

 facet normal 0.2807032465934753 -0.6787533164024353 0.6786012649536133
  outer loop
  vertex 0.2068281918764114 -0.3657813668251038 0.5672814846038818
  vertex 0.1126686483621597 -0.408336877822876 0.563665509223938
  vertex 0.1684714406728745 -0.4091846346855164 0.5397347211837769
  endloop
 endfacet

 facet normal 0.0001484729436924681 -0.923758327960968 0.3829761743545532
  outer loop
  vertex -0.1123505532741547 -0.4797760844230652 0.3914376497268677
  vertex 0.1126686483621597 -0.408336877822876 0.563665509223938
  vertex -0.1124196350574493 -0.4083548188209534 0.5637094974517822
  endloop
 endfacet

 facet normal -0.2813871800899506 -0.6786562204360962 0.6784151792526245
  outer loop
  vertex -0.1124196350574493 -0.4083548188209534 0.5637094974517822
  vertex -0.1124203950166702 -0.4047833681106567 0.5672818422317505
  vertex -0.1702337265014648 -0.4083507061004639 0.5397340059280396
  endloop
 endfacet

 facet normal -0.281417191028595 -0.678589403629303 0.6784694790840149
  outer loop
  vertex -0.1124203950166702 -0.4047833681106567 0.5672818422317505
  vertex -0.1702445149421692 -0.3808307647705078 0.5672543048858643
  vertex -0.1702337265014648 -0.4083507061004639 0.5397340059280396
  endloop
 endfacet

 facet normal 8.603568858234212e-06 -0.5380985140800476 0.8428820371627808
  outer loop
  vertex -0.1124203950166702 -0.4047833681106567 0.5672818422317505
  vertex 0.01958411931991577 -0.1703422665596008 0.7169485092163086
  vertex -0.01933416724205017 -0.1703421473503113 0.7169489860534668
  endloop
 endfacet

 facet normal -0.1952817887067795 -0.471476286649704 0.8599855303764343
  outer loop
  vertex -0.1066250950098038 -0.1341849714517593 0.7169500589370728
  vertex -0.1124203950166702 -0.4047833681106567 0.5672818422317505
  vertex -0.01933416724205017 -0.1703421473503113 0.7169489860534668
  endloop
 endfacet

 facet normal -0.195691779255867 -0.4714300334453583 0.8599177598953247
  outer loop
  vertex -0.1702445149421692 -0.3808307647705078 0.5672543048858643
  vertex -0.1124203950166702 -0.4047833681106567 0.5672818422317505
  vertex -0.1066250950098038 -0.1341849714517593 0.7169500589370728
  endloop
 endfacet

 facet normal 0.0001945375115610659 -0.7072011828422546 0.707012414932251
  outer loop
  vertex 0.1126686483621597 -0.408336877822876 0.563665509223938
  vertex -0.1124203950166702 -0.4047833681106567 0.5672818422317505
  vertex -0.1124196350574493 -0.4083548188209534 0.5637094974517822
  endloop
 endfacet

 facet normal 0.8773337602615356 -0.4798806607723236 0.0001327962818322703
  outer loop
  vertex 0.3562436997890472 -0.4331834316253662 0.1394173204898834
  vertex 0.3562318086624146 -0.4331943988800049 0.1783454716205597
  vertex 0.3273232579231262 -0.4860506653785706 0.1613846123218536
  endloop
 endfacet

 facet normal 0.8878867030143738 -0.4600622355937958 0.0001415486622136086
  outer loop
  vertex 0.4647417962551117 -0.2237370610237122 0.3116303980350494
  vertex 0.3562318086624146 -0.4331943988800049 0.1783454716205597
  vertex 0.3562436997890472 -0.4331834316253662 0.1394173204898834
  endloop
 endfacet

 facet normal 0.6535279750823975 -0.6531447768211365 0.3824960887432098
  outer loop
  vertex 0.4358376562595367 -0.2765967845916748 0.3336387276649475
  vertex 0.2831388413906097 -0.4419476985931396 0.312187135219574
  vertex 0.3273232579231262 -0.4860506653785706 0.1613846123218536
  endloop
 endfacet

 facet normal 0.6534584760665894 -0.6531047821044922 0.3826829791069031
  outer loop
  vertex 0.2831388413906097 -0.4419476985931396 0.312187135219574
  vertex 0.4358376562595367 -0.2765967845916748 0.3336387276649475
  vertex 0.4126493632793427 -0.2533621788024902 0.4128876030445099
  endloop
 endfacet

 facet normal 0.8694117069244385 -0.4915513694286346 0.05000559240579605
  outer loop
  vertex 0.3562318086624146 -0.4331943988800049 0.1783454716205597
  vertex 0.4358376562595367 -0.2765967845916748 0.3336387276649475
  vertex 0.3273232579231262 -0.4860506653785706 0.1613846123218536
  endloop
 endfacet

 facet normal 0.8813267946243286 -0.4718934297561646 0.02407469786703587
  outer loop
  vertex 0.4358376562595367 -0.2765967845916748 0.3336387276649475
  vertex 0.3562318086624146 -0.4331943988800049 0.1783454716205597
  vertex 0.4647417962551117 -0.2237370610237122 0.3116303980350494
  endloop
 endfacet

 facet normal 0.8902134299278259 -0.4435619115829468 0.1037925109267235
  outer loop
  vertex 0.4358376562595367 -0.2765967845916748 0.3336387276649475
  vertex 0.4647417962551117 -0.2237370610237122 0.3116303980350494
  vertex 0.4868791699409485 -0.1701969802379608 0.3505672216415405
  endloop
 endfacet

 facet normal 0.7559939622879028 -0.5344762206077576 -0.3779000639915466
  outer loop
  vertex 0.3273243606090546 -0.4860495924949646 0.1563340127468109
  vertex 0.3041354417800903 -0.4628154635429382 0.07708355784416199
  vertex 0.3450194299221039 -0.4219377636909485 0.1010577976703644
  endloop
 endfacet

 facet normal 0.9125458002090454 -0.1568580865859985 0.3776980340480804
  outer loop
  vertex 0.5038187503814697 -0.112366572022438 0.3336570262908936
  vertex 0.4413914680480957 -0.1124270260334015 0.4844606816768646
  vertex 0.4868791699409485 -0.1701969802379608 0.3505672216415405
  endloop
 endfacet

 facet normal 0.9596829414367676 -0.2810847163200378 8.002742106327787e-05
  outer loop
  vertex 0.5038197040557861 -0.1123647540807724 0.3286058902740479
  vertex 0.5038187503814697 -0.112366572022438 0.3336570262908936
  vertex 0.4868791699409485 -0.1701969802379608 0.3505672216415405
  endloop
 endfacet

 facet normal 0.8968671560287476 -0.1691740900278091 -0.408668041229248
  outer loop
  vertex 0.4709931612014771 -0.1123323291540146 0.2493553757667542
  vertex 0.4709876477718353 -0.1701654493808746 0.2732841372489929
  vertex 0.3450194299221039 -0.4219377636909485 0.1010577976703644
  endloop
 endfacet

 facet normal -3.343498974572867e-06 -0.7071658372879028 -0.7070478200912476
  outer loop
  vertex 0.1124757453799248 -0.5385693907737732 0.07344970107078552
  vertex 0.1124762445688248 -0.5421403646469116 0.0770212709903717
  vertex -0.112226277589798 -0.5386311411857605 0.07351252436637878
  endloop
 endfacet

 facet normal -0.0001531320158392191 -0.3826726078987122 -0.9238840937614441
  outer loop
  vertex 0.1124615222215652 -0.4593190550804138 0.0406242311000824
  vertex 0.1124757453799248 -0.5385693907737732 0.07344970107078552
  vertex -0.112226277589798 -0.5386311411857605 0.07351252436637878
  endloop
 endfacet

 facet normal -0.2499574571847916 -0.110169529914856 0.9619688391685486
  outer loop
  vertex -0.1124864667654037 -0.002439379692077637 0.733911395072937
  vertex -0.1703028380870819 -0.01937346160411835 0.7169489860534668
  vertex -0.07771733403205872 -0.08132821321487427 0.7339110374450684
  endloop
 endfacet

 facet normal -1.488286034145858e-05 -1.109272398025496e-05 1
  outer loop
  vertex -0.002400681376457214 -0.1125258579850197 0.7339117527008057
  vertex -0.1124864667654037 -0.002439379692077637 0.733911395072937
  vertex -0.07771733403205872 -0.08132821321487427 0.7339110374450684
  endloop
 endfacet

 facet normal -0.2815200388431549 9.035277798830066e-06 0.959555447101593
  outer loop
  vertex -0.1124864667654037 -0.002439379692077637 0.733911395072937
  vertex -0.1703034043312073 0.01954515278339386 0.7169485092163086
  vertex -0.1703028380870819 -0.01937346160411835 0.7169489860534668
  endloop
 endfacet

 facet normal -5.020113349019084e-06 -1.230038151334156e-06 1
  outer loop
  vertex -0.1124864667654037 -0.002439379692077637 0.733911395072937
  vertex -0.002400681376457214 -0.1125258579850197 0.7339117527008057
  vertex 0.08153887093067169 0.07792761921882629 0.733912467956543
  endloop
 endfacet

 facet normal -7.321140401472803e-06 4.325196641730145e-06 1
  outer loop
  vertex -0.0812896192073822 0.07792824506759644 0.7339112758636475
  vertex -0.1124864667654037 -0.002439379692077637 0.733911395072937
  vertex 0.08153887093067169 0.07792761921882629 0.733912467956543
  endloop
 endfacet

 facet normal -0.0002153930108761415 0.5381842851638794 0.8428272008895874
  outer loop
  vertex -0.01933403313159943 0.1705131977796555 0.7169497013092041
  vertex 0.1126709505915642 0.4049550890922546 0.5672813653945923
  vertex -0.1124214380979538 0.4049362540245056 0.5672359466552734
  endloop
 endfacet

 facet normal 0.1990804076194763 -0.1990306228399277 0.9595592617988586
  outer loop
  vertex 0.08153823018074036 -0.07775665074586868 0.7339112758636475
  vertex 0.07796724140644073 -0.0813291072845459 0.7339111566543579
  vertex 0.134395569562912 -0.1066652238368988 0.7169487476348877
  endloop
 endfacet

 facet normal 0.5343830585479736 -0.7560576796531677 0.3779043555259705
  outer loop
  vertex 0.2302692532539368 -0.4708628058433533 0.3290991485118866
  vertex 0.2831388413906097 -0.4419476985931396 0.312187135219574
  vertex 0.2190219014883041 -0.4596364498138428 0.3674637973308563
  endloop
 endfacet

 facet normal 0.3568504452705383 -0.8632538318634033 0.3570021986961365
  outer loop
  vertex 0.2744520604610443 -0.51496422290802 0.1782951056957245
  vertex 0.2302692532539368 -0.4708628058433533 0.3290991485118866
  vertex 0.1703406274318695 -0.5580273270606995 0.1782329678535461
  endloop
 endfacet

 facet normal 0.5343403816223145 -0.756192684173584 0.377694308757782
  outer loop
  vertex 0.2302692532539368 -0.4708628058433533 0.3290991485118866
  vertex 0.2744520604610443 -0.51496422290802 0.1782951056957245
  vertex 0.3273232579231262 -0.4860506653785706 0.1613846123218536
  endloop
 endfacet

 facet normal 0.5343765616416931 -0.7561582326889038 0.3777121007442474
  outer loop
  vertex 0.2831388413906097 -0.4419476985931396 0.312187135219574
  vertex 0.2302692532539368 -0.4708628058433533 0.3290991485118866
  vertex 0.3273232579231262 -0.4860506653785706 0.1613846123218536
  endloop
 endfacet

 facet normal 0.3565745949745178 -0.8633092641830444 0.357143759727478
  outer loop
  vertex 0.2302692532539368 -0.4708628058433533 0.3290991485118866
  vertex 0.1704068183898926 -0.4867144227027893 0.3505487740039825
  vertex 0.1703406274318695 -0.5580273270606995 0.1782329678535461
  endloop
 endfacet

 facet normal 0.3565780222415924 -0.8633014559745789 0.3571592271327972
  outer loop
  vertex 0.2302692532539368 -0.4708628058433533 0.3290991485118866
  vertex 0.2190219014883041 -0.4596364498138428 0.3674637973308563
  vertex 0.1704068183898926 -0.4867144227027893 0.3505487740039825
  endloop
 endfacet

 facet normal 0.6907122135162354 0.3065563142299652 0.6549351215362549
  outer loop
  vertex 0.4093936383724213 0.1684317290782928 0.5397357940673828
  vertex 0.4085426330566406 0.1704440265893936 0.5396914482116699
  vertex 0.3685166835784912 0.2093155235052109 0.5637092590332031
  endloop
 endfacet

 facet normal 0.8566854000091553 0.370220810174942 0.3592029809951782
  outer loop
  vertex 0.4085426330566406 0.1704440265893936 0.5396914482116699
  vertex 0.4093936383724213 0.1684317290782928 0.5397357940673828
  vertex 0.4206192493438721 0.1796794980764389 0.5013704299926758
  endloop
 endfacet

 facet normal 0.6787483096122742 0.2808324694633484 0.6785528063774109
  outer loop
  vertex 0.3659918010234833 0.2067886888980865 0.567280650138855
  vertex 0.3899427354335785 0.1489652544260025 0.5672541856765747
  vertex 0.3685166835784912 0.2093155235052109 0.5637092590332031
  endloop
 endfacet

 facet normal 0.6788119077682495 0.280850887298584 0.6784815788269043
  outer loop
  vertex 0.3899427354335785 0.1489652544260025 0.5672541856765747
  vertex 0.4093936383724213 0.1684317290782928 0.5397357940673828
  vertex 0.3685166835784912 0.2093155235052109 0.5637092590332031
  endloop
 endfacet

 facet normal 0.4717132449150085 0.194993868470192 0.8599209189414978
  outer loop
  vertex 0.3899427354335785 0.1489652544260025 0.5672541856765747
  vertex 0.3659918010234833 0.2067886888980865 0.567280650138855
  vertex 0.1705518215894699 0.01954422891139984 0.7169492244720459
  endloop
 endfacet

 facet normal 0.9596760869026184 0.2811085879802704 -0.0002034628996625543
  outer loop
  vertex 0.4869249165058136 0.170352965593338 0.3116308450698853
  vertex 0.5038648843765259 0.1125374585390091 0.3336392939090729
  vertex 0.5038644075393677 0.1125354319810867 0.3285874426364899
  endloop
 endfacet

 facet normal 0.9596694707870483 0.2811309695243835 -0.0001394244900438935
  outer loop
  vertex 0.4869260787963867 0.1703682988882065 0.3505485355854034
  vertex 0.5038648843765259 0.1125374585390091 0.3336392939090729
  vertex 0.4869249165058136 0.170352965593338 0.3116308450698853
  endloop
 endfacet

 facet normal 0.9135870337486267 0.1489855051040649 0.3783678412437439
  outer loop
  vertex 0.5038648843765259 0.1125374585390091 0.3336392939090729
  vertex 0.4093936383724213 0.1684317290782928 0.5397357940673828
  vertex 0.4710381627082825 0.1125692427158356 0.4128885269165039
  endloop
 endfacet

 facet normal 0.9131834506988525 0.1575782746076584 0.3758524358272552
  outer loop
  vertex 0.5038648843765259 0.1125374585390091 0.3336392939090729
  vertex 0.4869260787963867 0.1703682988882065 0.3505485355854034
  vertex 0.4093936383724213 0.1684317290782928 0.5397357940673828
  endloop
 endfacet

 facet normal 0.923876941204071 1.929960546931397e-07 0.3826898038387299
  outer loop
  vertex 0.4413914680480957 -0.1124270260334015 0.4844606816768646
  vertex 0.5038648843765259 0.1125374585390091 0.3336392939090729
  vertex 0.4710381627082825 0.1125692427158356 0.4128885269165039
  endloop
 endfacet

 facet normal 0.9239611029624939 -0.0001596178335603327 0.3824863731861115
  outer loop
  vertex 0.5038187503814697 -0.112366572022438 0.3336570262908936
  vertex 0.5038648843765259 0.1125374585390091 0.3336392939090729
  vertex 0.4413914680480957 -0.1124270260334015 0.4844606816768646
  endloop
 endfacet

 facet normal 1 -0.0001990431046579033 -9.430875070393085e-05
  outer loop
  vertex 0.5038648843765259 0.1125374585390091 0.3336392939090729
  vertex 0.5038197040557861 -0.1123647540807724 0.3286058902740479
  vertex 0.5038644075393677 0.1125354319810867 0.3285874426364899
  endloop
 endfacet

 facet normal 1 -0.0002053776261163875 0.0001887295220512897
  outer loop
  vertex 0.5038648843765259 0.1125374585390091 0.3336392939090729
  vertex 0.5038187503814697 -0.112366572022438 0.3336570262908936
  vertex 0.5038197040557861 -0.1123647540807724 0.3286058902740479
  endloop
 endfacet

 facet normal -0.1564716845750809 0.9124809503555298 -0.3780146241188049
  outer loop
  vertex -0.1122271418571472 0.542311429977417 0.07702070474624634
  vertex -0.1700600683689117 0.5423074960708618 0.1009500026702881
  vertex -0.1700758934020996 0.5581981539726257 0.1393146514892578
  endloop
 endfacet

 facet normal -0.1336722373962402 0.9234654307365417 -0.359643429517746
  outer loop
  vertex -0.1122611165046692 0.5751376748085022 0.1613220870494843
  vertex -0.1122271418571472 0.542311429977417 0.07702070474624634
  vertex -0.1700758934020996 0.5581981539726257 0.1393146514892578
  endloop
 endfacet

 facet normal -0.2808586359024048 0.6786158084869385 -0.6786745190620422
  outer loop
  vertex -0.1700600683689117 0.5423074960708618 0.1009500026702881
  vertex -0.1122271418571472 0.542311429977417 0.07702070474624634
  vertex -0.1122263967990875 0.5387405157089233 0.07344979047775269
  endloop
 endfacet

 facet normal -0.008315920829772949 0.9318130612373352 -0.3628434836864471
  outer loop
  vertex -0.1122271418571472 0.542311429977417 0.07702070474624634
  vertex -0.1122611165046692 0.5751376748085022 0.1613220870494843
  vertex 0.1125095784664154 0.5752012729644775 0.1563339531421661
  endloop
 endfacet

 facet normal 0.00801427848637104 0.9154581427574158 -0.4023335576057434
  outer loop
  vertex 0.1124762669205666 0.5388023257255554 0.07351216673851013
  vertex -0.1122271418571472 0.542311429977417 0.07702070474624634
  vertex 0.1125095784664154 0.5752012729644775 0.1563339531421661
  endloop
 endfacet

 facet normal 1.781885089258139e-06 0.7071068286895752 -0.7071068286895752
  outer loop
  vertex -0.1122263967990875 0.5387405157089233 0.07344979047775269
  vertex -0.1122271418571472 0.542311429977417 0.07702070474624634
  vertex 0.1124762669205666 0.5388023257255554 0.07351216673851013
  endloop
 endfacet

 facet normal 0.8627158403396606 0.3579700291156769 0.3571817576885223
  outer loop
  vertex 0.4869260787963867 0.1703682988882065 0.3505485355854034
  vertex 0.4647206366062164 0.2238660454750061 0.3505664467811584
  vertex 0.4206192493438721 0.1796794980764389 0.5013704299926758
  endloop
 endfacet

 facet normal 0.8552140593528748 0.3733322322368622 0.3594886064529419
  outer loop
  vertex 0.4647206366062164 0.2238660454750061 0.3505664467811584
  vertex 0.4085426330566406 0.1704440265893936 0.5396914482116699
  vertex 0.4206192493438721 0.1796794980764389 0.5013704299926758
  endloop
 endfacet

 facet normal 0.7571482062339783 0.534302830696106 0.3758288025856018
  outer loop
  vertex 0.4085426330566406 0.1704440265893936 0.5396914482116699
  vertex 0.4647206366062164 0.2238660454750061 0.3505664467811584
  vertex 0.4358052015304565 0.2767356038093567 0.3336569368839264
  endloop
 endfacet

 facet normal 0.9235987663269043 0.3833604753017426 -0.000165236895554699
  outer loop
  vertex 0.4647206366062164 0.2238660454750061 0.3505664467811584
  vertex 0.4869260787963867 0.1703682988882065 0.3505485355854034
  vertex 0.4647091031074524 0.2238770574331284 0.3116479218006134
  endloop
 endfacet

 facet normal 0.8773725032806396 0.4798097610473633 -0.0001242613361682743
  outer loop
  vertex 0.435804158449173 0.2767365574836731 0.3286063969135284
  vertex 0.4647206366062164 0.2238660454750061 0.3505664467811584
  vertex 0.4647091031074524 0.2238770574331284 0.3116479218006134
  endloop
 endfacet

 facet normal 0.8773661851882935 0.4798214137554169 -8.776706818025559e-05
  outer loop
  vertex 0.4358052015304565 0.2767356038093567 0.3336569368839264
  vertex 0.4647206366062164 0.2238660454750061 0.3505664467811584
  vertex 0.435804158449173 0.2767365574836731 0.3286063969135284
  endloop
 endfacet

 facet normal 0.1564666926860809 0.9124655723571777 -0.3780538141727448
  outer loop
  vertex 0.1703256368637085 0.5582616925239563 0.1393773853778839
  vertex 0.1703105568885803 0.5423691272735596 0.1010130643844604
  vertex 0.1125095784664154 0.5752012729644775 0.1563339531421661
  endloop
 endfacet

 facet normal 0.678554892539978 0.6785315275192261 -0.2813509404659271
  outer loop
  vertex 0.1703105568885803 0.5423691272735596 0.1010130643844604
  vertex 0.1703256368637085 0.5582616925239563 0.1393773853778839
  vertex 0.1942844688892365 0.542366623878479 0.1588266789913177
  endloop
 endfacet

 facet normal 0.3469729423522949 0.8909235000610352 0.293027400970459
  outer loop
  vertex 0.1703992784023285 0.4958329200744629 0.3290992677211761
  vertex 0.1703256368637085 0.5582616925239563 0.1393773853778839
  vertex 0.1125095784664154 0.5752012729644775 0.1563339531421661
  endloop
 endfacet

 facet normal 0.352429211139679 0.8889895677566528 0.2923888862133026
  outer loop
  vertex 0.1942844688892365 0.542366623878479 0.1588266789913177
  vertex 0.1703256368637085 0.5582616925239563 0.1393773853778839
  vertex 0.1703992784023285 0.4958329200744629 0.3290992677211761
  endloop
 endfacet

 facet normal 0.3599056303501129 0.8632111549377441 0.3540262281894684
  outer loop
  vertex 0.223937138915062 0.4647136926651001 0.3505493402481079
  vertex 0.2301803231239319 0.4709446430206299 0.3290097415447235
  vertex 0.1703992784023285 0.4958329200744629 0.3290992677211761
  endloop
 endfacet

 facet normal 0.5342365503311157 0.7580355405807495 0.3741304278373718
  outer loop
  vertex 0.2301803231239319 0.4709446430206299 0.3290097415447235
  vertex 0.223937138915062 0.4647136926651001 0.3505493402481079
  vertex 0.2768064439296722 0.435799777507782 0.3336382806301117
  endloop
 endfacet

 facet normal 0.5343679189682007 0.756068229675293 0.3779045045375824
  outer loop
  vertex 0.223937138915062 0.4647136926651001 0.3505493402481079
  vertex 0.2535718977451324 0.4126101732254028 0.4128877222537994
  vertex 0.2768064439296722 0.435799777507782 0.3336382806301117
  endloop
 endfacet

 facet normal 0.5341822504997253 0.7561296820640564 0.378044068813324
  outer loop
  vertex 0.223937138915062 0.4647136926651001 0.3505493402481079
  vertex 0.1684588491916656 0.4093419909477234 0.5396904945373535
  vertex 0.2535718977451324 0.4126101732254028 0.4128877222537994
  endloop
 endfacet

 facet normal 0.6917120814323425 0.2070938348770142 -0.6918429136276245
  outer loop
  vertex 0.1702911406755447 0.4764857888221741 0.05760213732719421
  vertex 0.4710380434989929 0.1125028729438782 0.2493382096290588
  vertex 0.4674662053585052 0.1125018745660782 0.2457667291164398
  endloop
 endfacet

 facet normal 0.7247490286827087 0.2634657323360443 -0.6366511583328247
  outer loop
  vertex 0.4710337817668915 0.1703361868858337 0.2732665538787842
  vertex 0.4710380434989929 0.1125028729438782 0.2493382096290588
  vertex 0.1702911406755447 0.4764857888221741 0.05760213732719421
  endloop
 endfacet

 facet normal 0.9238783717155457 -0.0002136455150321126 -0.3826862275600433
  outer loop
  vertex 0.4709931612014771 -0.1123323291540146 0.2493553757667542
  vertex 0.4710380434989929 0.1125028729438782 0.2493382096290588
  vertex 0.5038644075393677 0.1125354319810867 0.3285874426364899
  endloop
 endfacet

 facet normal 0.9124755859375 0.1564722806215286 -0.3780273795127869
  outer loop
  vertex 0.4710380434989929 0.1125028729438782 0.2493382096290588
  vertex 0.4869249165058136 0.170352965593338 0.3116308450698853
  vertex 0.5038644075393677 0.1125354319810867 0.3285874426364899
  endloop
 endfacet

 facet normal 0.9124737977981567 0.1564760953187943 -0.3780304193496704
  outer loop
  vertex 0.4710380434989929 0.1125028729438782 0.2493382096290588
  vertex 0.4710337817668915 0.1703361868858337 0.2732665538787842
  vertex 0.4869249165058136 0.170352965593338 0.3116308450698853
  endloop
 endfacet

 facet normal 0.7067602872848511 0.02946158312261105 -0.706839382648468
  outer loop
  vertex 0.4710380434989929 0.1125028729438782 0.2493382096290588
  vertex 0.3450194299221039 -0.4219377636909485 0.1010577976703644
  vertex 0.4674662053585052 0.1125018745660782 0.2457667291164398
  endloop
 endfacet

 facet normal 0.7623478174209595 -0.0002015933860093355 -0.6471675634384155
  outer loop
  vertex 0.4710380434989929 0.1125028729438782 0.2493382096290588
  vertex 0.4709931612014771 -0.1123323291540146 0.2493553757667542
  vertex 0.3450194299221039 -0.4219377636909485 0.1010577976703644
  endloop
 endfacet

 facet normal 0.1489575952291489 -0.9135898947715759 0.3783718347549438
  outer loop
  vertex 0.1126079261302948 -0.4708278179168701 0.4128877818584442
  vertex 0.1125773787498474 -0.5036541819572449 0.3336395919322968
  vertex 0.1684714406728745 -0.4091846346855164 0.5397347211837769
  endloop
 endfacet

 facet normal 0.148473784327507 -0.9135819673538208 0.3785810172557831
  outer loop
  vertex 0.1126686483621597 -0.408336877822876 0.563665509223938
  vertex 0.1126079261302948 -0.4708278179168701 0.4128877818584442
  vertex 0.1684714406728745 -0.4091846346855164 0.5397347211837769
  endloop
 endfacet

 facet normal 0.0002593345125205815 -0.9238767027854919 0.3826902508735657
  outer loop
  vertex 0.1126079261302948 -0.4708278179168701 0.4128877818584442
  vertex -0.1123505532741547 -0.4797760844230652 0.3914376497268677
  vertex 0.1125773787498474 -0.5036541819572449 0.3336395919322968
  endloop
 endfacet

 facet normal 0.0002385944098932669 -0.9237998723983765 0.3828756809234619
  outer loop
  vertex 0.1126079261302948 -0.4708278179168701 0.4128877818584442
  vertex 0.1126686483621597 -0.408336877822876 0.563665509223938
  vertex -0.1123505532741547 -0.4797760844230652 0.3914376497268677
  endloop
 endfacet

 facet normal 0.1949134171009064 -0.4717742800712585 0.8599057197570801
  outer loop
  vertex 0.1126699298620224 -0.4047650694847107 0.5672363042831421
  vertex 0.2068281918764114 -0.3657813668251038 0.5672814846038818
  vertex 0.01958411931991577 -0.1703422665596008 0.7169485092163086
  endloop
 endfacet

 facet normal 0.2806507050991058 -0.6786478757858276 0.678728461265564
  outer loop
  vertex 0.1126699298620224 -0.4047650694847107 0.5672363042831421
  vertex 0.1126686483621597 -0.408336877822876 0.563665509223938
  vertex 0.2068281918764114 -0.3657813668251038 0.5672814846038818
  endloop
 endfacet

 facet normal 0.0002142637094948441 -0.5381807088851929 0.8428294062614441
  outer loop
  vertex -0.1124203950166702 -0.4047833681106567 0.5672818422317505
  vertex 0.1126699298620224 -0.4047650694847107 0.5672363042831421
  vertex 0.01958411931991577 -0.1703422665596008 0.7169485092163086
  endloop
 endfacet

 facet normal 0.0002005499263759702 -0.707012414932251 0.7072011828422546
  outer loop
  vertex 0.1126699298620224 -0.4047650694847107 0.5672363042831421
  vertex -0.1124203950166702 -0.4047833681106567 0.5672818422317505
  vertex 0.1126686483621597 -0.408336877822876 0.563665509223938
  endloop
 endfacet

 facet normal 0.755235493183136 -0.5250283479690552 0.3923832774162292
  outer loop
  vertex 0.4126493632793427 -0.2533621788024902 0.4128876030445099
  vertex 0.4535265266895294 -0.2124789953231812 0.388913482427597
  vertex 0.4244516491889954 -0.1702569127082825 0.5013703107833862
  endloop
 endfacet

 facet normal 0.7560755014419556 -0.534363865852356 0.3778957724571228
  outer loop
  vertex 0.4358376562595367 -0.2765967845916748 0.3336387276649475
  vertex 0.4535265266895294 -0.2124789953231812 0.388913482427597
  vertex 0.4126493632793427 -0.2533621788024902 0.4128876030445099
  endloop
 endfacet

 facet normal 0.8631476163864136 -0.3569367825984955 0.3571729362010956
  outer loop
  vertex 0.4244516491889954 -0.1702569127082825 0.5013703107833862
  vertex 0.4535265266895294 -0.2124789953231812 0.388913482427597
  vertex 0.4868791699409485 -0.1701969802379608 0.3505672216415405
  endloop
 endfacet

 facet normal 0.8573068380355835 -0.4508125782012939 0.2485819756984711
  outer loop
  vertex 0.4535265266895294 -0.2124789953231812 0.388913482427597
  vertex 0.4358376562595367 -0.2765967845916748 0.3336387276649475
  vertex 0.4868791699409485 -0.1701969802379608 0.3505672216415405
  endloop
 endfacet

 facet normal 0.60741126537323 -0.1239320263266563 -0.7846607565879822
  outer loop
  vertex 0.3450194299221039 -0.4219377636909485 0.1010577976703644
  vertex 0.3016114234924316 -0.4602887034416199 0.07351264357566833
  vertex 0.2984435558319092 -0.375335693359375 0.0576426088809967
  endloop
 endfacet

 facet normal 0.6787463426589966 -0.2809044420719147 -0.6785250306129456
  outer loop
  vertex 0.3041354417800903 -0.4628154635429382 0.07708355784416199
  vertex 0.3016114234924316 -0.4602887034416199 0.07351264357566833
  vertex 0.3450194299221039 -0.4219377636909485 0.1010577976703644
  endloop
 endfacet

 facet normal 0.1677910536527634 -0.1749800741672516 -0.9701691865921021
  outer loop
  vertex 0.3016114234924316 -0.4602887034416199 0.07351264357566833
  vertex 0.1124615222215652 -0.4593190550804138 0.0406242311000824
  vertex 0.2984435558319092 -0.375335693359375 0.0576426088809967
  endloop
 endfacet

 facet normal 0.5345816612243652 -0.7558603286743164 -0.3780180811882019
  outer loop
  vertex 0.2632385790348053 -0.5037069916725159 0.1010124981403351
  vertex 0.3041354417800903 -0.4628154635429382 0.07708355784416199
  vertex 0.3273243606090546 -0.4860495924949646 0.1563340127468109
  endloop
 endfacet

 facet normal 0.2811595499515533 -0.678398072719574 -0.6787675023078918
  outer loop
  vertex 0.2632385790348053 -0.5037069916725159 0.1010124981403351
  vertex 0.3016114234924316 -0.4602887034416199 0.07351264357566833
  vertex 0.3041354417800903 -0.4628154635429382 0.07708355784416199
  endloop
 endfacet

 facet normal 0.9124753475189209 -0.1564861536026001 -0.3780222535133362
  outer loop
  vertex 0.5038197040557861 -0.1123647540807724 0.3286058902740479
  vertex 0.4868792295455933 -0.1701803356409073 0.3116481602191925
  vertex 0.4709931612014771 -0.1123323291540146 0.2493553757667542
  endloop
 endfacet

 facet normal 0.9124681949615479 -0.1565004289150238 -0.3780336976051331
  outer loop
  vertex 0.4868792295455933 -0.1701803356409073 0.3116481602191925
  vertex 0.4709876477718353 -0.1701654493808746 0.2732841372489929
  vertex 0.4709931612014771 -0.1123323291540146 0.2493553757667542
  endloop
 endfacet

 facet normal 0.9178406000137329 -0.3793465495109558 -0.1168970316648483
  outer loop
  vertex 0.4868792295455933 -0.1701803356409073 0.3116481602191925
  vertex 0.4647417962551117 -0.2237370610237122 0.3116303980350494
  vertex 0.3562436997890472 -0.4331834316253662 0.1394173204898834
  endloop
 endfacet

 facet normal 0.9126152396202087 -0.2335850745439529 -0.3355167210102081
  outer loop
  vertex 0.4868792295455933 -0.1701803356409073 0.3116481602191925
  vertex 0.3562436997890472 -0.4331834316253662 0.1394173204898834
  vertex 0.3450194299221039 -0.4219377636909485 0.1010577976703644
  endloop
 endfacet

 facet normal 0.9058374166488647 -0.1964860856533051 -0.3753025233745575
  outer loop
  vertex 0.4709876477718353 -0.1701654493808746 0.2732841372489929
  vertex 0.4868792295455933 -0.1701803356409073 0.3116481602191925
  vertex 0.3450194299221039 -0.4219377636909485 0.1010577976703644
  endloop
 endfacet

 facet normal 0.9241629838943481 -0.3819985389709473 -0.0001619186077732593
  outer loop
  vertex 0.4647417962551117 -0.2237370610237122 0.3116303980350494
  vertex 0.4868792295455933 -0.1701803356409073 0.3116481602191925
  vertex 0.4868791699409485 -0.1701969802379608 0.3505672216415405
  endloop
 endfacet

 facet normal 0.9596626162528992 -0.2811542451381683 -0.0001187721063615754
  outer loop
  vertex 0.4868792295455933 -0.1701803356409073 0.3116481602191925
  vertex 0.5038197040557861 -0.1123647540807724 0.3286058902740479
  vertex 0.4868791699409485 -0.1701969802379608 0.3505672216415405
  endloop
 endfacet

 facet normal -0.0001481487124692649 5.899119059904478e-05 1
  outer loop
  vertex -0.1124870181083679 0.002611249685287476 0.7339110374450684
  vertex -0.1124864667654037 -0.002439379692077637 0.733911395072937
  vertex -0.0812896192073822 0.07792824506759644 0.7339112758636475
  endloop
 endfacet

 facet normal -0.2815139889717102 2.630504241096787e-05 0.9595571756362915
  outer loop
  vertex -0.1124864667654037 -0.002439379692077637 0.733911395072937
  vertex -0.1124870181083679 0.002611249685287476 0.7339110374450684
  vertex -0.1703034043312073 0.01954515278339386 0.7169485092163086
  endloop
 endfacet

 facet normal -0.2517310976982117 0.1042683720588684 0.962164044380188
  outer loop
  vertex -0.1124870181083679 0.002611249685287476 0.7339110374450684
  vertex -0.0812896192073822 0.07792824506759644 0.7339112758636475
  vertex -0.1341453492641449 0.1068370193243027 0.7169498205184937
  endloop
 endfacet

 facet normal -0.2517472803592682 0.1042644008994102 0.9621602296829224
  outer loop
  vertex -0.1703034043312073 0.01954515278339386 0.7169485092163086
  vertex -0.1124870181083679 0.002611249685287476 0.7339110374450684
  vertex -0.1341453492641449 0.1068370193243027 0.7169498205184937
  endloop
 endfacet

 facet normal -7.321029897866538e-06 3.310414467705414e-05 1
  outer loop
  vertex 0.002650707960128784 0.1126964390277863 0.7339106798171997
  vertex -0.0812896192073822 0.07792824506759644 0.7339112758636475
  vertex 0.08153887093067169 0.07792761921882629 0.733912467956543
  endloop
 endfacet

 facet normal -0.1990485042333603 0.1990629732608795 0.9595591425895691
  outer loop
  vertex -0.0812896192073822 0.07792824506759644 0.7339112758636475
  vertex -0.1066261678934097 0.1343553513288498 0.7169495820999146
  vertex -0.1341453492641449 0.1068370193243027 0.7169498205184937
  endloop
 endfacet

 facet normal -0.391181468963623 0.3912007212638855 0.833030104637146
  outer loop
  vertex -0.1066261678934097 0.1343553513288498 0.7169495820999146
  vertex -0.1373182535171509 0.1375286430120468 0.7010467052459717
  vertex -0.1341453492641449 0.1068370193243027 0.7169498205184937
  endloop
 endfacet

 facet normal -0.3877866566181183 0.4032190442085266 0.8288763165473938
  outer loop
  vertex -0.1373182535171509 0.1375286430120468 0.7010467052459717
  vertex -0.1066261678934097 0.1343553513288498 0.7169495820999146
  vertex -0.1702443659305573 0.3809844255447388 0.5672097206115723
  endloop
 endfacet

 facet normal -0.1957233399152756 0.4715608060359955 0.8598388433456421
  outer loop
  vertex -0.1066261678934097 0.1343553513288498 0.7169495820999146
  vertex -0.1124214380979538 0.4049362540245056 0.5672359466552734
  vertex -0.1702443659305573 0.3809844255447388 0.5672097206115723
  endloop
 endfacet

 facet normal -0.1953476220369339 0.4716032147407532 0.859900951385498
  outer loop
  vertex -0.1066261678934097 0.1343553513288498 0.7169495820999146
  vertex -0.01933403313159943 0.1705131977796555 0.7169497013092041
  vertex -0.1124214380979538 0.4049362540245056 0.5672359466552734
  endloop
 endfacet

 facet normal 0.2517480254173279 0.1042674481868744 0.9621597528457642
  outer loop
  vertex 0.1127357184886932 0.002610586583614349 0.7339117527008057
  vertex 0.1705518215894699 0.01954422891139984 0.7169492244720459
  vertex 0.08153887093067169 0.07792761921882629 0.733912467956543
  endloop
 endfacet

 facet normal 0.2815248072147369 -8.986005013866816e-06 0.9595538973808289
  outer loop
  vertex 0.1127357184886932 0.002610586583614349 0.7339117527008057
  vertex 0.1705522090196609 -0.01937294378876686 0.7169487476348877
  vertex 0.1705518215894699 0.01954422891139984 0.7169492244720459
  endloop
 endfacet

 facet normal -4.366045322967693e-05 1.027352482196875e-05 1
  outer loop
  vertex 0.08153823018074036 -0.07775665074586868 0.7339112758636475
  vertex 0.1127357184886932 0.002610586583614349 0.7339117527008057
  vertex 0.07796724140644073 -0.0813291072845459 0.7339111566543579
  endloop
 endfacet

 facet normal 6.155549272079952e-06 -6.155546543595847e-06 1
  outer loop
  vertex -0.002400681376457214 -0.1125258579850197 0.7339117527008057
  vertex 0.1127357184886932 0.002610586583614349 0.7339117527008057
  vertex 0.08153887093067169 0.07792761921882629 0.733912467956543
  endloop
 endfacet

 facet normal 1.333405270997901e-05 -1.333404634351609e-05 1
  outer loop
  vertex 0.07796724140644073 -0.0813291072845459 0.7339111566543579
  vertex 0.1127357184886932 0.002610586583614349 0.7339117527008057
  vertex -0.002400681376457214 -0.1125258579850197 0.7339117527008057
  endloop
 endfacet

 facet normal 0.75167316198349 0.5402404069900513 0.3783224821090698
  outer loop
  vertex 0.4085426330566406 0.1704440265893936 0.5396914482116699
  vertex 0.3917055130004883 0.2325494438409805 0.4844585359096527
  vertex 0.3685166835784912 0.2093155235052109 0.5637092590332031
  endloop
 endfacet

 facet normal 0.751858115196228 0.5401184558868408 0.3781290054321289
  outer loop
  vertex 0.3917055130004883 0.2325494438409805 0.4844585359096527
  vertex 0.4085426330566406 0.1704440265893936 0.5396914482116699
  vertex 0.4358052015304565 0.2767356038093567 0.3336569368839264
  endloop
 endfacet

 facet normal 0.6532946228981018 0.6532734632492065 0.3826747536659241
  outer loop
  vertex 0.3685166835784912 0.2093155235052109 0.5637092590332031
  vertex 0.3917055130004883 0.2325494438409805 0.4844585359096527
  vertex 0.2768064439296722 0.435799777507782 0.3336382806301117
  endloop
 endfacet

 facet normal 0.6534493565559387 0.6532255411148071 0.3824922144412994
  outer loop
  vertex 0.3917055130004883 0.2325494438409805 0.4844585359096527
  vertex 0.4358052015304565 0.2767356038093567 0.3336569368839264
  vertex 0.2768064439296722 0.435799777507782 0.3336382806301117
  endloop
 endfacet

 facet normal 0.6789531707763672 0.2806356847286224 0.6784292459487915
  outer loop
  vertex 0.3899427354335785 0.1489652544260025 0.5672541856765747
  vertex 0.4085468351840973 0.1126308515667915 0.5636656284332275
  vertex 0.4093936383724213 0.1684317290782928 0.5397357940673828
  endloop
 endfacet

 facet normal 0.9237985014915466 0.0001456017780583352 0.3828791081905365
  outer loop
  vertex 0.4085468351840973 0.1126308515667915 0.5636656284332275
  vertex 0.408564031124115 -0.1124584153294563 0.5637097358703613
  vertex 0.4710381627082825 0.1125692427158356 0.4128885269165039
  endloop
 endfacet

 facet normal 0.9135788679122925 0.1484883725643158 0.3785828053951263
  outer loop
  vertex 0.4093936383724213 0.1684317290782928 0.5397357940673828
  vertex 0.4085468351840973 0.1126308515667915 0.5636656284332275
  vertex 0.4710381627082825 0.1125692427158356 0.4128885269165039
  endloop
 endfacet

 facet normal 0.7072100043296814 0.0001925691904034466 0.7070035338401794
  outer loop
  vertex 0.408564031124115 -0.1124584153294563 0.5637097358703613
  vertex 0.4085468351840973 0.1126308515667915 0.5636656284332275
  vertex 0.4049934446811676 -0.1124598681926727 0.5672813653945923
  endloop
 endfacet

 facet normal 0.3206665515899658 0.8751324415206909 0.3623758554458618
  outer loop
  vertex 0.1684588491916656 0.4093419909477234 0.5396904945373535
  vertex 0.170414537191391 0.4799415469169617 0.3674631714820862
  vertex 0.1703992784023285 0.4958329200744629 0.3290992677211761
  endloop
 endfacet

 facet normal 0.3582870662212372 0.8625907897949219 0.3571660816669464
  outer loop
  vertex 0.170414537191391 0.4799415469169617 0.3674631714820862
  vertex 0.223937138915062 0.4647136926651001 0.3505493402481079
  vertex 0.1703992784023285 0.4958329200744629 0.3290992677211761
  endloop
 endfacet

 facet normal 0.3583603501319885 0.8623887300491333 0.3575802147388458
  outer loop
  vertex 0.223937138915062 0.4647136926651001 0.3505493402481079
  vertex 0.170414537191391 0.4799415469169617 0.3674631714820862
  vertex 0.1684588491916656 0.4093419909477234 0.5396904945373535
  endloop
 endfacet

 facet normal 0.1562476605176926 -0.3779485821723938 -0.9125467538833618
  outer loop
  vertex 0.1702924221754074 -0.4762523770332336 0.05753937363624573
  vertex 0.1124757453799248 -0.5385693907737732 0.07344970107078552
  vertex 0.1124615222215652 -0.4593190550804138 0.0406242311000824
  endloop
 endfacet

 facet normal 0.1568275392055511 -0.3764766156673431 -0.9130555987358093
  outer loop
  vertex 0.3016114234924316 -0.4602887034416199 0.07351264357566833
  vertex 0.1702924221754074 -0.4762523770332336 0.05753937363624573
  vertex 0.1124615222215652 -0.4593190550804138 0.0406242311000824
  endloop
 endfacet

 facet normal 0.4797825217247009 -0.8773874640464783 -9.822061838349327e-05
  outer loop
  vertex 0.2744637131690979 -0.5149534940719604 0.1393767893314362
  vertex 0.3273243606090546 -0.4860495924949646 0.1563340127468109
  vertex 0.2744520604610443 -0.51496422290802 0.1782951056957245
  endloop
 endfacet

 facet normal 0.534569263458252 -0.7558793425559998 -0.3779976367950439
  outer loop
  vertex 0.2744637131690979 -0.5149534940719604 0.1393767893314362
  vertex 0.2632385790348053 -0.5037069916725159 0.1010124981403351
  vertex 0.3273243606090546 -0.4860495924949646 0.1563340127468109
  endloop
 endfacet

 facet normal 0.3822193145751953 -0.9240716695785522 -0.0001403021160513163
  outer loop
  vertex 0.2744637131690979 -0.5149534940719604 0.1393767893314362
  vertex 0.2744520604610443 -0.51496422290802 0.1782951056957245
  vertex 0.1703406274318695 -0.5580273270606995 0.1782329678535461
  endloop
 endfacet

 facet normal 0.3298107981681824 -0.9321320056915283 -0.1495151817798615
  outer loop
  vertex 0.1125086173415184 -0.5749669671058655 0.1562710702419281
  vertex 0.2744637131690979 -0.5149534940719604 0.1393767893314362
  vertex 0.1703406274318695 -0.5580273270606995 0.1782329678535461
  endloop
 endfacet

 facet normal 0.2810859084129333 -0.6783699989318848 -0.6788260936737061
  outer loop
  vertex 0.2632385790348053 -0.5037069916725159 0.1010124981403351
  vertex 0.1702985614538193 -0.514616847038269 0.07343074679374695
  vertex 0.3016114234924316 -0.4602887034416199 0.07351264357566833
  endloop
 endfacet

 facet normal 0.1562697291374207 -0.3779662549495697 -0.9125356674194336
  outer loop
  vertex 0.1702924221754074 -0.4762523770332336 0.05753937363624573
  vertex 0.1702985614538193 -0.514616847038269 0.07343074679374695
  vertex 0.1124757453799248 -0.5385693907737732 0.07344970107078552
  endloop
 endfacet

 facet normal 0.1569287329912186 -0.3779261410236359 -0.9124391078948975
  outer loop
  vertex 0.1702985614538193 -0.514616847038269 0.07343074679374695
  vertex 0.1702924221754074 -0.4762523770332336 0.05753937363624573
  vertex 0.3016114234924316 -0.4602887034416199 0.07351264357566833
  endloop
 endfacet

 facet normal -9.438133565708995e-05 0.0002432925393804908 0.9999999403953552
  outer loop
  vertex 0.002650707960128784 0.1126964390277863 0.7339106798171997
  vertex -0.002399429678916931 0.1126972585916519 0.7339102029800415
  vertex -0.0812896192073822 0.07792824506759644 0.7339112758636475
  endloop
 endfacet

 facet normal -4.492307562031783e-05 0.281479150056839 0.9595673084259033
  outer loop
  vertex -0.002399429678916931 0.1126972585916519 0.7339102029800415
  vertex 0.002650707960128784 0.1126964390277863 0.7339106798171997
  vertex -0.01933403313159943 0.1705131977796555 0.7169497013092041
  endloop
 endfacet

 facet normal -0.106646403670311 0.2420066446065903 0.9643958806991577
  outer loop
  vertex -0.002399429678916931 0.1126972585916519 0.7339102029800415
  vertex -0.1066261678934097 0.1343553513288498 0.7169495820999146
  vertex -0.0812896192073822 0.07792824506759644 0.7339112758636475
  endloop
 endfacet

 facet normal -0.1042665392160416 0.2517151236534119 0.9621683955192566
  outer loop
  vertex -0.1066261678934097 0.1343553513288498 0.7169495820999146
  vertex -0.002399429678916931 0.1126972585916519 0.7339102029800415
  vertex -0.01933403313159943 0.1705131977796555 0.7169497013092041
  endloop
 endfacet

 facet normal 0.0001581084652571008 0.0004084528191015124 0.9999999403953552
  outer loop
  vertex 0.07796666026115417 0.08149930834770203 0.7339115142822266
  vertex 0.002650707960128784 0.1126964390277863 0.7339106798171997
  vertex 0.08153887093067169 0.07792761921882629 0.733912467956543
  endloop
 endfacet

 facet normal 0.2815122306346893 -4.491848085308447e-05 0.9595576524734497
  outer loop
  vertex 0.1127357184886932 0.002610586583614349 0.7339117527008057
  vertex 0.1127365380525589 -0.002439349889755249 0.7339112758636475
  vertex 0.1705522090196609 -0.01937294378876686 0.7169487476348877
  endloop
 endfacet

 facet normal 0.0002259553002659231 -9.438771667191759e-05 0.9999999403953552
  outer loop
  vertex 0.1127365380525589 -0.002439349889755249 0.7339112758636475
  vertex 0.1127357184886932 0.002610586583614349 0.7339117527008057
  vertex 0.08153823018074036 -0.07775665074586868 0.7339112758636475
  endloop
 endfacet

 facet normal 0.2517477869987488 -0.1042744368314743 0.9621590375900269
  outer loop
  vertex 0.1705522090196609 -0.01937294378876686 0.7169487476348877
  vertex 0.1127365380525589 -0.002439349889755249 0.7339112758636475
  vertex 0.134395569562912 -0.1066652238368988 0.7169487476348877
  endloop
 endfacet

 facet normal 0.2517378628253937 -0.1042768582701683 0.9621613025665283
  outer loop
  vertex 0.1127365380525589 -0.002439349889755249 0.7339112758636475
  vertex 0.08153823018074036 -0.07775665074586868 0.7339112758636475
  vertex 0.134395569562912 -0.1066652238368988 0.7169487476348877
  endloop
 endfacet

 facet normal 0.4718234539031982 0.1947904080152512 0.8599066138267517
  outer loop
  vertex 0.4049758017063141 0.1126309409737587 0.5672363042831421
  vertex 0.3899427354335785 0.1489652544260025 0.5672541856765747
  vertex 0.1705518215894699 0.01954422891139984 0.7169492244720459
  endloop
 endfacet

 facet normal 0.6786947846412659 0.2804711759090424 0.6787557601928711
  outer loop
  vertex 0.4049758017063141 0.1126309409737587 0.5672363042831421
  vertex 0.4085468351840973 0.1126308515667915 0.5636656284332275
  vertex 0.3899427354335785 0.1489652544260025 0.5672541856765747
  endloop
 endfacet

 facet normal 0.5381818413734436 0.0002109101333189756 0.8428287506103516
  outer loop
  vertex 0.4049758017063141 0.1126309409737587 0.5672363042831421
  vertex 0.1705518215894699 0.01954422891139984 0.7169492244720459
  vertex 0.4049934446811676 -0.1124598681926727 0.5672813653945923
  endloop
 endfacet

 facet normal 0.7070714235305786 0.0001969847944565117 0.7071421146392822
  outer loop
  vertex 0.4085468351840973 0.1126308515667915 0.5636656284332275
  vertex 0.4049758017063141 0.1126309409737587 0.5672363042831421
  vertex 0.4049934446811676 -0.1124598681926727 0.5672813653945923
  endloop
 endfacet

 facet normal 0.3197574019432068 -0.9230787754058838 -0.2137303203344345
  outer loop
  vertex 0.17031030356884 -0.5421351790428162 0.1009499132633209
  vertex 0.2744637131690979 -0.5149534940719604 0.1393767893314362
  vertex 0.1125086173415184 -0.5749669671058655 0.1562710702419281
  endloop
 endfacet

 facet normal 0.3570972084999084 -0.8629616498947144 -0.3574617207050323
  outer loop
  vertex 0.2744637131690979 -0.5149534940719604 0.1393767893314362
  vertex 0.17031030356884 -0.5421351790428162 0.1009499132633209
  vertex 0.2632385790348053 -0.5037069916725159 0.1010124981403351
  endloop
 endfacet

 facet normal 0.1564886718988419 -0.9124734401702881 -0.3780257999897003
  outer loop
  vertex 0.17031030356884 -0.5421351790428162 0.1009499132633209
  vertex 0.1125086173415184 -0.5749669671058655 0.1562710702419281
  vertex 0.1124762445688248 -0.5421403646469116 0.0770212709903717
  endloop
 endfacet

 facet normal 0.2810564637184143 -0.6785544753074646 -0.67865389585495
  outer loop
  vertex 0.17031030356884 -0.5421351790428162 0.1009499132633209
  vertex 0.1702985614538193 -0.514616847038269 0.07343074679374695
  vertex 0.2632385790348053 -0.5037069916725159 0.1010124981403351
  endloop
 endfacet

 facet normal 0.2808346748352051 -0.6786870956420898 -0.6786131262779236
  outer loop
  vertex 0.1124757453799248 -0.5385693907737732 0.07344970107078552
  vertex 0.17031030356884 -0.5421351790428162 0.1009499132633209
  vertex 0.1124762445688248 -0.5421403646469116 0.0770212709903717
  endloop
 endfacet

 facet normal 0.2808775305747986 -0.6785916090011597 -0.6786908507347107
  outer loop
  vertex 0.1702985614538193 -0.514616847038269 0.07343074679374695
  vertex 0.17031030356884 -0.5421351790428162 0.1009499132633209
  vertex 0.1124757453799248 -0.5385693907737732 0.07344970107078552
  endloop
 endfacet

 facet normal 1.087238797481405e-05 0.2814987301826477 0.9595615863800049
  outer loop
  vertex 0.002650707960128784 0.1126964390277863 0.7339106798171997
  vertex 0.01958373188972473 0.170513316988945 0.7169492244720459
  vertex -0.01933403313159943 0.1705131977796555 0.7169497013092041
  endloop
 endfacet

 facet normal 0.1042603477835655 0.2517305612564087 0.9621650576591492
  outer loop
  vertex 0.07796666026115417 0.08149930834770203 0.7339115142822266
  vertex 0.01958373188972473 0.170513316988945 0.7169492244720459
  vertex 0.002650707960128784 0.1126964390277863 0.7339106798171997
  endloop
 endfacet

 facet normal 8.679138773004524e-06 0.5380947589874268 0.8428844213485718
  outer loop
  vertex -0.01933403313159943 0.1705131977796555 0.7169497013092041
  vertex 0.01958373188972473 0.170513316988945 0.7169492244720459
  vertex 0.1126709505915642 0.4049550890922546 0.5672813653945923
  endloop
 endfacet

 facet normal 0.1042736992239952 0.2517386674880981 0.9621614813804626
  outer loop
  vertex 0.1068761199712753 0.1343562602996826 0.7169491052627563
  vertex 0.01958373188972473 0.170513316988945 0.7169492244720459
  vertex 0.07796666026115417 0.08149930834770203 0.7339115142822266
  endloop
 endfacet

 facet normal 0.1990756094455719 0.1990691721439362 0.9595521688461304
  outer loop
  vertex 0.1068761199712753 0.1343562602996826 0.7169491052627563
  vertex 0.08153887093067169 0.07792761921882629 0.733912467956543
  vertex 0.1343959122896194 0.1068370118737221 0.7169487476348877
  endloop
 endfacet

 facet normal 0.1988895982503891 0.1991587579250336 0.9595721960067749
  outer loop
  vertex 0.1068761199712753 0.1343562602996826 0.7169491052627563
  vertex 0.07796666026115417 0.08149930834770203 0.7339115142822266
  vertex 0.08153887093067169 0.07792761921882629 0.733912467956543
  endloop
 endfacet

 facet normal 0.3804957866668701 0.3804941773414612 0.8428802490234375
  outer loop
  vertex 0.3659918010234833 0.2067886888980865 0.567280650138855
  vertex 0.1068761199712753 0.1343562602996826 0.7169491052627563
  vertex 0.1343959122896194 0.1068370118737221 0.7169487476348877
  endloop
 endfacet

 facet normal 0.3804079294204712 0.3806993961334229 0.8428272604942322
  outer loop
  vertex 0.1068761199712753 0.1343562602996826 0.7169491052627563
  vertex 0.3659918010234833 0.2067886888980865 0.567280650138855
  vertex 0.206816166639328 0.3659396171569824 0.5672367811203003
  endloop
 endfacet

 facet normal 0.1958872377872467 0.4713703989982605 0.8599058985710144
  outer loop
  vertex 0.1068761199712753 0.1343562602996826 0.7169491052627563
  vertex 0.206816166639328 0.3659396171569824 0.5672367811203003
  vertex 0.170493483543396 0.3810022473335266 0.5672543048858643
  endloop
 endfacet

 facet normal 0.1956916898488998 0.4714285731315613 0.8599185347557068
  outer loop
  vertex 0.1126709505915642 0.4049550890922546 0.5672813653945923
  vertex 0.1068761199712753 0.1343562602996826 0.7169491052627563
  vertex 0.170493483543396 0.3810022473335266 0.5672543048858643
  endloop
 endfacet

 facet normal 0.19528928399086 0.4714740216732025 0.8599851131439209
  outer loop
  vertex 0.01958373188972473 0.170513316988945 0.7169492244720459
  vertex 0.1068761199712753 0.1343562602996826 0.7169491052627563
  vertex 0.1126709505915642 0.4049550890922546 0.5672813653945923
  endloop
 endfacet

endsolidAssimpScene
